<svg width="246" height="612" viewBox="0 0 246 612" fill="none" xmlns="http://www.w3.org/2000/svg">
<g clip-path="url(#clip0_25_198)">
<path d="M222.112 -32.1703C220.273 -28.5021 218.387 -24.867 216.611 -21.1605C213.723 -15.1335 210.8 -9.11697 208.08 -3.02046C205.361 3.07611 202.811 9.10913 200.345 15.2436C198.496 19.8256 196.745 24.4564 195.221 29.155C192.62 37.1208 190.107 45.1126 187.766 53.1567C185.888 59.4105 184.282 65.7652 182.728 72.1355C181.56 76.8455 180.634 81.6283 179.691 86.406C178.748 91.1837 177.884 95.5078 177.101 100.066C176.034 106.201 174.927 112.343 174.096 118.51C172.846 127.836 171.666 137.183 170.726 146.546C169.488 158.855 168.509 171.184 167.397 183.512C165.849 200.445 164.467 217.39 162.625 234.292C161.709 242.821 159.935 251.246 158.486 259.786C156.756 269.408 154.195 278.864 150.831 288.044C146.113 301.98 138.877 314.927 129.491 326.228C124.484 331.741 119.055 336.847 113.253 341.5C107.782 346.178 102.259 350.841 97.0952 355.879C89.2223 363.818 82.7609 373.061 77.9955 383.201C74.3689 390.553 70.9642 398.048 67.9931 405.673C63.886 416.252 60.5363 427.111 57.9698 438.166C56.7211 443.52 55.4029 448.854 54.2583 454.239C53.1137 459.625 52.2109 464.835 51.202 470.146C50.073 476.11 48.9561 482.096 47.8618 488.069C46.9971 492.775 46.1843 497.496 45.3022 502.197C44.6458 505.705 44.0189 509.24 43.1665 512.708C41.2122 520.601 39.4209 528.581 36.9808 536.327C32.6634 550.772 26.3328 564.535 18.1794 577.203C13.7822 584.29 7.62223 590.099 0.315784 594.049C-0.37051 594.437 -1.13122 594.671 -1.91406 594.735C-1.70289 594.496 -1.46176 594.286 -1.19681 594.11C8.51426 589.044 15.1088 580.941 20.4776 571.629C24.3656 564.761 27.8093 557.649 30.7872 550.337C34.0008 542.521 36.6659 534.489 38.7626 526.301C40.6437 519.093 42.1031 511.778 43.6146 504.478C44.9039 498.296 46.0319 492.084 47.172 485.895C48.0294 481.34 48.7269 476.813 49.6001 472.205C50.5352 467.202 51.5126 462.206 52.5322 457.216C53.5137 452.373 54.5352 447.523 55.6382 442.717C56.6286 438.412 57.6242 434.09 58.9095 429.873C61.1191 422.516 63.3341 415.141 65.9722 407.931C71.5283 392.832 78.1195 378.253 87.6772 365.196C93.0221 358.079 99.1994 351.636 106.074 346.009C110.891 341.936 115.731 337.909 120.489 333.78C129.316 325.848 136.592 316.32 141.937 305.693C146.73 296.689 150.513 287.179 153.214 277.339C155.291 269.732 156.939 261.976 158.438 254.215C162.318 234.181 163.706 213.877 165.463 193.607C167.138 174.554 168.68 155.69 170.545 136.885C171.441 127.605 172.944 118.507 174.377 109.389C175.728 100.692 177.275 92.0146 179.017 83.3582C180.09 77.8363 181.415 72.3522 182.891 66.9326C185.409 57.605 187.932 48.26 190.831 39.0471C193.489 30.64 196.632 22.3788 199.653 14.0812C203.413 4.13572 207.672 -5.61241 212.416 -15.1252C215.201 -20.9348 218.288 -26.6155 221.241 -32.3555L222.112 -32.1703Z" fill="white"/>
</g>
<defs>
<clipPath id="clip0_25_198">
<rect width="664.594" height="58.3454" fill="white" transform="translate(-1.8457 594.508) rotate(-73.2833)"/>
</clipPath>
</defs>
</svg>
