<svg width="288" height="395" viewBox="0 0 288 395" fill="none" xmlns="http://www.w3.org/2000/svg">
<g clip-path="url(#clip0_8_217)">
<path d="M168.124 364.957C166.458 367.512 163.876 369.332 160.909 370.042C157.437 371.092 153.692 370.754 150.464 369.1C147.235 367.445 144.774 364.604 143.597 361.172C142.991 359.353 142.636 357.476 142.119 355.613C141.557 353.218 140.966 350.823 140.463 348.428C140.267 347.211 139.718 346.078 138.885 345.169C138.053 344.26 136.972 343.615 135.777 343.313C132.923 342.515 129.996 341.982 127.098 341.347C124.807 340.859 122.456 340.548 120.224 339.868C114.473 338.138 112.994 332.668 115.951 328.174C117.071 326.596 118.457 325.226 120.046 324.123C122.137 322.608 124.359 321.282 126.684 320.161C136.028 315.529 144.8 309.823 152.822 303.16C160.599 296.906 168.316 290.579 176.684 285.049C180.084 282.802 183.617 280.703 187.24 278.796C193.776 275.357 201.04 273.532 208.425 273.473C214.338 273.473 216.216 269.245 216.467 265.475C216.586 263.583 216.467 261.661 216.349 259.754C216.186 251.386 215.92 243.019 215.876 234.621C215.876 227.909 216.157 221.197 216.098 214.486C216.098 209.696 215.639 204.906 215.418 200.101C215.418 199.199 215.418 198.297 215.418 197.366H216.393C216.615 199.642 216.911 201.875 217.059 204.137C217.621 212.312 217.354 220.503 217.266 228.693C217.147 239.53 217.266 250.366 217.576 261.218C217.593 264.373 218.452 267.467 220.063 270.18C221.674 272.893 223.98 275.127 226.742 276.652C229.699 278.382 232.523 280.2 235.346 282.093C241.596 286.29 246.92 291.724 250.988 298.059C253.715 302.135 256.213 306.36 258.469 310.714C261.997 317.761 266.06 324.527 270.621 330.953C276.445 339.17 281.162 348.117 284.651 357.565C286.093 361.11 286.99 364.853 287.312 368.667C287.374 369.773 287.325 370.883 287.164 371.979C287.137 372.551 286.944 373.102 286.609 373.566C286.274 374.031 285.812 374.388 285.278 374.594C284.744 374.801 284.162 374.848 283.602 374.73C283.042 374.612 282.528 374.335 282.123 373.93C280.757 372.833 279.467 371.642 278.264 370.368C277.625 369.589 276.828 368.955 275.926 368.507C275.024 368.058 274.037 367.806 273.031 367.766C271.482 367.797 269.95 367.437 268.578 366.719C267.205 366 266.037 364.946 265.18 363.656L264.781 363.907C264.959 365.563 265.092 367.233 265.299 368.889C265.95 374.244 265.404 379.677 263.702 384.797C263.208 386.701 262.088 388.383 260.522 389.574C258.956 390.765 257.035 391.394 255.068 391.361C254.377 391.452 253.681 391.506 252.984 391.523C249.554 391.401 246.139 392.027 242.975 393.357C234.992 396.535 228.59 393.017 224.643 388.626C223.638 387.517 222.706 386.334 221.686 385.196C221.287 384.738 220.858 384.279 220.311 383.717C219.72 384.117 219.188 384.412 218.729 384.797C214.901 388.082 210.053 389.942 205.01 390.06C200.471 390.178 196.139 389.158 192.887 385.713C191.896 384.664 190.847 383.673 189.782 382.756C188.606 381.705 187.125 381.058 185.554 380.908C182.982 380.592 180.45 380.007 178 379.164C176.145 378.471 174.46 377.387 173.06 375.987C171.66 374.587 170.576 372.902 169.883 371.048C169.189 369.05 168.602 367.017 168.124 364.957ZM220.666 277.376C218.922 278.175 218.478 278.589 217.901 279.845C215.037 286.067 211.255 291.823 206.68 296.921C202.615 301.489 198.298 305.791 194.099 310.3C189.422 315.234 185.16 320.544 181.355 326.178C176.095 334.278 172.436 343.312 170.578 352.789C169.367 357.325 169.115 362.063 169.839 366.701C171.036 372.733 174.274 377.05 180.69 378.75C182.333 379.218 184.016 379.534 185.717 379.696C187.749 379.848 189.654 380.743 191.069 382.209C192.207 383.274 193.33 384.368 194.469 385.447C196.049 386.913 198.012 387.902 200.131 388.3C203.204 388.973 206.389 388.939 209.447 388.201C212.504 387.463 215.355 386.042 217.783 384.043C218.552 383.437 219.395 382.919 220.356 382.254C221.018 382.795 221.65 383.372 222.248 383.984C223.46 385.329 224.539 386.792 225.796 388.079C230.438 392.839 235.879 394.85 242.458 392.218C246.193 390.773 250.177 390.08 254.181 390.178C258.882 390.178 261.115 388.537 262.682 384.264C262.785 383.969 262.889 383.688 262.978 383.392C264.288 378.768 264.714 373.938 264.234 369.155C263.492 363.036 261.962 357.038 259.681 351.311C257.227 344.584 254.965 337.798 252.762 330.998C251.21 326.178 250.027 321.27 248.445 316.465C244.049 302.718 235.958 290.443 225.057 280.984C223.638 279.698 222.144 278.574 220.666 277.376ZM144.676 349.611H144.514C144.676 352.257 144.75 354.903 145.031 357.52C145.476 361.123 147.172 364.456 149.821 366.938C150.669 367.741 151.676 368.355 152.778 368.741C154.747 369.439 156.859 369.637 158.923 369.317C160.987 368.997 162.94 368.169 164.605 366.908C165.949 365.904 166.976 364.533 167.562 362.961C168.034 361.372 168.283 359.725 168.301 358.067C169.213 351.724 170.809 345.498 173.062 339.499C176.369 330.834 181.24 322.852 187.432 315.948C191.97 310.729 196.746 305.688 201.521 300.676C206.393 295.717 210.674 290.21 214.279 284.266C215.041 283.061 215.679 281.783 216.186 280.452C217.236 277.317 215.684 274.42 212.535 274.449C203.576 274.449 194.927 275.928 187.077 280.245C182.591 282.668 178.261 285.369 174.111 288.331C167.119 293.432 160.318 298.813 153.532 304.18C145.536 310.827 136.812 316.545 127.527 321.226C125.201 322.343 122.975 323.659 120.874 325.158C119.45 326.167 118.188 327.389 117.134 328.78C116.504 329.552 116.069 330.464 115.866 331.439C115.663 332.414 115.697 333.424 115.966 334.383C116.046 334.914 116.311 335.399 116.714 335.754C117.117 336.108 117.632 336.309 118.169 336.32C120.889 336.409 123.609 336.438 126.33 336.483C130.055 336.483 133.825 336.32 137.521 336.719C138.526 336.783 139.509 337.045 140.413 337.489C141.317 337.933 142.124 338.551 142.789 339.308C143.453 340.065 143.962 340.945 144.286 341.899C144.61 342.852 144.743 343.86 144.676 344.865C144.691 346.358 144.676 347.999 144.676 349.611ZM223.031 276.578L222.677 277.066C223.327 277.716 223.933 278.397 224.628 279.003C228.733 282.482 232.518 286.321 235.938 290.475C242.741 298.974 247.768 308.752 250.722 319.23C254.24 331.501 258.114 343.653 262.549 355.628C263.418 358.346 264.699 360.914 266.348 363.242C267.081 364.276 268.052 365.118 269.179 365.697C270.306 366.277 271.556 366.575 272.824 366.568C274.026 366.539 275.219 366.779 276.316 367.27C277.413 367.761 278.387 368.491 279.166 369.407C279.793 370.104 280.454 370.771 281.147 371.402C281.827 372.05 282.554 372.648 283.32 373.191C283.52 373.376 283.764 373.507 284.028 373.571C284.292 373.635 284.568 373.63 284.831 373.558C285.093 373.485 285.332 373.347 285.526 373.156C285.719 372.965 285.861 372.728 285.937 372.467C286.144 372.09 286.26 371.67 286.277 371.24C286.342 369.645 286.273 368.048 286.07 366.465C285.178 361.606 283.658 356.885 281.546 352.42C277.849 344.208 273.322 336.395 268.034 329.105C264.433 324.052 261.235 318.723 258.469 313.168C256 308.378 253.309 303.692 250.411 299.153C244.231 289.541 235.37 281.95 224.924 277.317C224.229 277.051 223.593 276.874 222.972 276.578H223.031ZM118.198 337.325L118.036 337.503C119.007 338.045 120.027 338.496 121.081 338.848C123.462 339.44 125.916 339.809 128.325 340.327C131.09 340.947 133.899 341.494 136.604 342.337C137.908 342.7 139.082 343.427 139.987 344.432C140.893 345.437 141.494 346.68 141.72 348.014C142.193 350.173 142.843 352.287 143.42 354.43C143.752 350.878 143.826 347.305 143.642 343.742C143.569 342.182 142.927 340.704 141.837 339.586C140.747 338.469 139.285 337.791 137.728 337.68C133.973 337.296 130.144 337.399 126.344 337.34C123.565 337.296 120.86 337.325 118.139 337.325H118.198Z" fill="white"/>
<path d="M157.449 0.0444336H158.824C158.942 0.236625 159.105 0.428819 159.209 0.635794C167.691 16.0341 175.1 31.9992 181.384 48.4175C187.07 63.6037 191.138 79.3469 193.522 95.3861C194.606 102.877 195.616 110.377 196.553 117.887C198.472 133.617 202.229 149.069 207.744 163.925C208.764 166.689 209.696 169.498 210.701 172.381C209.474 172.529 209.104 171.863 208.838 171.08C205.541 161.707 202.097 152.378 199.716 142.724C197.902 135 196.476 127.189 195.444 119.321C193.877 108.233 192.413 97.1454 190.536 86.087C188.054 72.6213 184.291 59.4234 179.3 46.673C173.346 31.4662 166.432 16.6525 158.602 2.32116C158.233 1.61153 157.893 0.901903 157.449 0.0444336Z" fill="white"/>
<path d="M280.497 360.817C279.95 359.575 279.358 358.363 278.885 357.106C275.848 349.714 272.074 342.646 267.62 336.01C263.34 329.548 259.445 322.839 255.955 315.918C254.374 312.636 252.999 309.295 251.52 305.954C247.612 296.681 241.599 288.446 233.957 281.9C233.394 281.449 232.896 280.922 232.479 280.333C235.271 282.202 237.831 284.396 240.107 286.868C245.077 291.946 249.031 297.928 251.757 304.49C256.68 316.129 262.658 327.293 269.616 337.843C273.67 343.851 276.958 350.342 279.403 357.165C279.802 358.393 280.127 359.634 280.497 360.861V360.817Z" fill="white"/>
<path d="M160.391 351.341C160.864 349.759 161.263 348.147 161.869 346.61C166.866 332.757 175.056 320.753 184.902 309.768C190.121 303.973 195.636 298.429 200.928 292.707C204.195 289.189 207.33 285.552 210.523 281.96C210.703 281.792 210.895 281.638 211.1 281.501C210.156 283.086 209.109 284.607 207.965 286.055C203.589 290.924 199.154 295.738 194.66 300.499C188.998 306.412 183.513 312.607 178.397 319.052C171.283 328.044 165.585 338.07 161.499 348.783C161.159 349.64 160.76 350.468 160.391 351.296V351.341Z" fill="white"/>
<path d="M185.746 371.846C186.042 368.357 186.264 364.868 186.663 361.408C187.091 357.624 187.683 353.869 188.215 350.114C189.735 338.557 193.236 327.349 198.564 316.983C202.999 308.526 207.345 300.085 211.662 291.599C212.993 288.967 214.087 286.217 215.536 283.556C215.398 284.194 215.216 284.822 214.989 285.434C212.993 289.869 211.086 294.304 208.927 298.739C205.054 306.545 200.9 314.218 197.1 322.054C193.223 330.171 190.577 338.821 189.25 347.719C188.511 352.316 187.771 356.899 187.062 361.512C186.589 364.942 186.337 368.416 185.983 371.861L185.746 371.846Z" fill="white"/>
<path d="M147.87 319.245C148.011 318.86 148.205 318.497 148.446 318.166C158.795 307.521 169.262 297.098 181.193 288.125C188.892 282.413 197.39 277.865 206.414 274.627C208.125 273.862 210.004 273.552 211.869 273.725C211.585 273.859 211.294 273.977 210.997 274.08C200.094 277.484 189.853 282.729 180.72 289.588C172.956 295.519 165.579 301.938 158.632 308.807C155.01 312.267 151.418 315.741 147.811 319.156L147.87 319.245Z" fill="white"/>
<path d="M219.35 277.243C221.529 278.64 223.425 280.436 224.938 282.536C228.173 287.089 230.77 292.063 232.655 297.32C235.371 303.791 237.398 310.53 238.702 317.426C239.33 320.992 239.759 324.59 239.988 328.204C240.372 334.206 240.683 340.238 240.683 346.255C240.683 351.341 240.225 356.441 239.811 361.512C239.811 359.856 239.811 358.2 239.811 356.545C239.914 351.326 240.225 346.092 240.077 340.859C239.914 334.945 239.633 328.943 238.879 323.029C237.133 310.744 233.245 298.86 227.392 287.917C225.589 284.36 223.205 281.127 220.34 278.352C219.941 277.983 219.631 277.598 219.35 277.243Z" fill="white"/>
<path d="M213.317 304.402C212.963 305.51 212.667 306.649 212.223 307.728C208.824 316.312 206.346 325.232 204.831 334.339C203.964 339.484 203.225 344.648 202.614 349.833C201.727 358.466 201.46 367.152 201.816 375.823C201.816 377.774 202.096 379.741 202.126 381.736C200.989 374.074 200.691 366.311 201.239 358.585C201.755 347.726 203.239 336.936 205.674 326.341C207.158 319.479 209.312 312.779 212.105 306.338C212.446 305.698 212.821 305.076 213.229 304.476L213.317 304.402Z" fill="white"/>
<path d="M244.186 307.403C244.607 308.132 244.982 308.888 245.309 309.665C248.285 317.546 250.454 325.709 251.785 334.028C252.553 339.055 253.174 344.111 253.706 349.182C254.702 359.163 255.062 369.197 254.786 379.223C254.805 379.662 254.663 380.093 254.387 380.435C254.32 380.064 254.276 379.689 254.253 379.312C254.253 376.725 254.253 374.137 254.253 371.55C254.017 365.03 253.913 358.511 253.411 352.006C252.412 337.483 249.493 323.156 244.733 309.398C244.511 308.763 244.393 308.097 244.215 307.432L244.186 307.403Z" fill="white"/>
<path d="M148.15 337.68C148.387 337.115 148.664 336.566 148.978 336.039C157.363 323.284 167.114 311.48 178.058 300.839C183.702 295.487 189.873 290.722 196.479 286.616C196.161 287.052 195.794 287.449 195.385 287.799C178.132 299.715 164.664 315.09 152.511 331.737C151.299 333.393 150.146 335.093 148.948 336.764C148.677 337.087 148.386 337.393 148.076 337.68H148.15Z" fill="white"/>
<path d="M230.54 312.888C235.862 335.389 234.754 357.86 230.215 380.303C230.511 378.188 230.836 376.074 231.087 373.96C231.442 371.151 231.767 368.347 232.063 365.548C232.432 361.941 232.891 358.334 233.083 354.726C233.319 350.242 233.423 345.752 233.393 341.258C233.393 337.754 233.112 334.251 232.802 330.762C232.492 327.273 231.974 323.828 231.531 320.413C231.176 317.87 230.865 315.386 230.54 312.888Z" fill="white"/>
<path d="M236.203 290.756C237.12 291.673 238.11 292.515 238.938 293.506C246.227 302.542 252.086 312.644 256.309 323.458C259.182 330.34 261.651 337.385 263.701 344.555C263.859 345.207 263.972 345.869 264.041 346.536C262.149 341.288 260.316 336.025 258.349 330.791C254.497 319.902 249.307 309.533 242.9 299.922C241.067 297.276 239.056 294.733 237.12 292.146C236.794 291.702 236.528 291.229 236.218 290.771L236.203 290.756Z" fill="white"/>
<path d="M220.991 282.581C221.331 284.946 221.76 287.297 222.011 289.677C222.44 293.698 222.78 297.734 223.105 301.77C223.297 304.343 223.49 306.93 223.49 309.502C223.549 319.358 223.509 329.214 223.371 339.07C223.371 338.893 223.371 338.715 223.371 338.538C223.238 331.146 223.164 323.754 222.957 316.362C222.824 311.646 222.514 306.915 222.277 302.199C222.129 299.434 222.026 296.67 221.804 293.92C221.553 290.8 221.198 287.696 220.873 284.576L220.695 282.581H220.991Z" fill="white"/>
<path d="M185.11 334.724C184.386 337.887 183.632 341.051 182.937 344.215C181.826 348.746 181.123 353.367 180.837 358.023C180.66 363.188 180.556 368.347 180.527 373.502C180.625 375.03 180.818 376.551 181.103 378.055C181.192 378.5 181.156 378.96 181 379.386C180.832 379.144 180.698 378.88 180.601 378.602C180.258 377.425 180.035 376.217 179.936 374.995C179.936 369.954 179.847 364.912 180.157 359.886C180.453 355.839 181.001 351.815 181.798 347.837C182.552 343.816 183.646 339.839 184.622 335.847C184.761 335.458 184.934 335.082 185.139 334.724H185.11Z" fill="white"/>
<path d="M124.525 331.781C124.785 331.443 125.077 331.131 125.398 330.85C135.495 323.458 144.912 315.386 154.463 307.403C155.006 307.002 155.574 306.637 156.163 306.309C154.596 307.787 153.058 309.177 151.462 310.566C143.449 317.559 135.288 324.345 126.595 330.539C125.945 330.998 125.22 331.382 124.525 331.796V331.781Z" fill="white"/>
<path d="M159.149 339.543C158.321 341.716 157.508 343.904 156.665 346.077C154.424 351.527 152.644 357.155 151.343 362.902C151.018 364.38 150.811 365.991 150.53 367.692C150.086 366.603 150.008 365.399 150.308 364.262C151.463 358.35 153.267 352.583 155.689 347.068C156.739 344.525 158.04 342.071 159.223 339.587L159.149 339.543Z" fill="white"/>
<path d="M221.582 362.354C222.277 372.348 221.878 381.721 220.459 383.525C220.123 382.214 220.088 380.845 220.355 379.519C220.533 377.331 220.828 375.083 220.976 372.94C221.242 369.096 221.42 365.237 221.582 362.354Z" fill="white"/>
<path d="M167.487 323.207C167.194 323.859 166.858 324.491 166.482 325.099C162.601 330.267 159.089 335.701 155.971 341.361C154.103 344.91 152.588 348.634 151.447 352.479C151.403 352.661 151.317 352.831 151.197 352.975C151.076 353.118 150.924 353.232 150.752 353.307C151.373 351.4 151.949 349.463 152.63 347.571C155.586 339.351 160.628 332.24 165.935 325.262C166.453 324.567 167.044 323.916 167.606 323.251L167.487 323.207Z" fill="white"/>
<path d="M210.997 318.86C210.539 321.388 210.051 323.901 209.637 326.429C208.647 332.343 207.671 338.257 206.769 344.17C206.473 346.092 206.385 348.044 206.045 349.995C205.944 349.623 205.884 349.242 205.867 348.857C206.104 345.9 206.133 342.825 206.651 339.868C207.745 333.481 209.105 327.139 210.376 320.767C210.558 320.123 210.781 319.491 211.042 318.875L210.997 318.86Z" fill="white"/>
<path d="M275.188 367.441C273.059 362.044 272.098 356.308 270.146 350.439C272.32 354.15 275.868 365.74 275.188 367.441Z" fill="white"/>
<path d="M192.739 291.879C191.172 293.106 189.561 294.274 188.068 295.575C184.726 298.443 181.444 301.4 178.148 304.313L176.758 305.525C176.918 305.196 177.111 304.884 177.334 304.594C181.67 299.892 186.571 295.745 191.926 292.249C192.197 292.105 192.485 291.996 192.784 291.924L192.739 291.879Z" fill="white"/>
<path d="M214.309 386.275C214.87 381.574 215.432 376.887 215.876 373.236C216.231 377.606 215.907 382.004 214.915 386.275H214.309Z" fill="white"/>
<path d="M176.344 305.88L174.111 308.497L176.314 305.865L176.344 305.88Z" fill="white"/>
<path d="M186.057 375.394V375.261L186.101 375.291L186.057 375.394Z" fill="white"/>
<path d="M156.888 305.466L158.026 304.845L156.873 305.436L156.888 305.466Z" fill="white"/>
<path d="M168.049 322.941L168.685 321.802L168.064 322.926L168.049 322.941Z" fill="white"/>
<path d="M123.327 332.432L124.525 331.781L123.312 332.417L123.327 332.432Z" fill="white"/>
<path d="M185.139 334.753C185.272 334.265 185.39 333.762 185.508 333.274L185.153 334.753H185.139Z" fill="white"/>
<path d="M147.809 338.493L147.41 339.085L147.232 338.922L147.853 338.538L147.809 338.493Z" fill="white"/>
<path d="M211.825 280.451C211.558 280.806 211.292 281.146 211.041 281.501L211.795 280.496L211.825 280.451Z" fill="white"/>
<path d="M263.982 346.536C264.086 346.684 264.189 346.817 264.086 346.654C264.086 346.861 264.086 346.654 264.086 346.491L263.982 346.536Z" fill="white"/>
<path d="M243.846 306.309L244.186 307.403C244.082 307.033 243.979 306.664 243.861 306.294L243.846 306.309Z" fill="white"/>
<path d="M160.332 351.296L159.889 352.316C160.037 351.976 160.199 351.636 160.362 351.296H160.332Z" fill="white"/>
<path d="M185.967 332.24L185.465 333.245L185.953 332.254L185.967 332.24Z" fill="white"/>
<path d="M280.481 360.861C280.481 361.024 280.57 361.172 280.481 361.098C280.392 361.024 280.481 360.995 280.481 360.817V360.861Z" fill="white"/>
<path d="M185.996 332.284V331.634H186.114C186.114 331.841 186.114 332.033 185.996 332.24V332.284Z" fill="white"/>
<path d="M186.514 330.259L186.44 330.377L186.41 330.244L186.514 330.259Z" fill="white"/>
<path d="M159.622 338.967L160.007 338.242L159.607 338.967H159.622Z" fill="white"/>
<path d="M147.855 338.538C147.959 338.242 148.048 337.961 148.151 337.68C148.062 337.961 147.959 338.242 147.855 338.523V338.538Z" fill="white"/>
<path d="M196.479 286.616L197.321 286.38L196.479 286.631V286.616Z" fill="white"/>
<path d="M186.853 329.105L186.868 329.224L186.779 329.194L186.853 329.105Z" fill="white"/>
<path d="M160.006 338.168L160.332 337.325L159.947 338.139L160.006 338.168Z" fill="white"/>
<path d="M211.04 318.89C211.103 318.827 211.157 318.758 211.203 318.683L210.996 318.86L211.04 318.89Z" fill="white"/>
<path d="M269.776 349.049V348.842L269.658 348.916L269.821 349.079L269.776 349.049Z" fill="white"/>
<path d="M269.792 349.079C269.785 349.123 269.785 349.168 269.792 349.212C269.792 349.212 269.881 349.212 269.926 349.3V349.049L269.792 349.079Z" fill="white"/>
<path d="M198.474 285.567L197.734 285.892L198.429 285.537L198.474 285.567Z" fill="white"/>
<path d="M243.891 306.264L243.418 305.599L243.861 306.264H243.891Z" fill="white"/>
<path d="M243.417 305.599L243.328 305.451V305.643L243.417 305.599Z" fill="white"/>
<path d="M123.253 332.387L123.002 332.89L123.253 332.432V332.387Z" fill="white"/>
<path d="M123.032 332.89L122.973 332.92L123.076 332.905L123.032 332.89Z" fill="white"/>
<path d="M194.216 290.741H194.098L194.216 290.889V290.771V290.741Z" fill="white"/>
<path d="M236.219 290.726L235.805 290.416C235.963 290.506 236.116 290.604 236.263 290.711L236.219 290.726Z" fill="white"/>
<path d="M194.216 290.741H194.334L194.201 290.608V290.726L194.216 290.741Z" fill="white"/>
<path d="M235.804 290.416L235.789 290.327L235.76 290.46L235.804 290.416Z" fill="white"/>
<path d="M197.736 285.892L197.277 286.335L197.721 285.877L197.736 285.892Z" fill="white"/>
<path d="M198.461 285.567H198.594L198.461 285.419V285.537V285.567Z" fill="white"/>
<path d="M211.824 280.496L211.883 280.393L211.824 280.452V280.496Z" fill="white"/>
<path d="M147.81 319.215L147.352 319.6L147.825 319.2L147.81 319.215Z" fill="white"/>
<path d="M171.405 318.831L171.006 319.2L171.39 318.831H171.405Z" fill="white"/>
<path d="M171.39 318.831H171.538L171.375 318.668V318.816L171.39 318.831Z" fill="white"/>
<path d="M173.223 309.206L173.164 309.265L173.268 309.236L173.223 309.206Z" fill="white"/>
<path d="M173.682 308.896L174.155 308.526L173.682 308.881V308.896Z" fill="white"/>
<path d="M159.208 303.662H159.341L159.193 303.529V303.648L159.208 303.662Z" fill="white"/>
<path d="M159.193 303.648L158.838 304.002L159.178 303.633L159.193 303.648Z" fill="white"/>
<path d="M156.458 305.865L156.133 306.264L156.473 305.865H156.458Z" fill="white"/>
<path d="M176.726 305.525L176.342 305.88L176.711 305.51L176.726 305.525Z" fill="white"/>
<path d="M156.502 305.91L156.886 305.466L156.502 305.924V305.91Z" fill="white"/>
<path d="M142.783 324.375H142.65L142.798 324.523V324.39L142.783 324.375Z" fill="white"/>
<path d="M142.798 324.375L143.168 324.02L142.783 324.39L142.798 324.375Z" fill="white"/>
<path d="M143.538 323.635L143.168 324.005L143.552 323.635H143.538Z" fill="white"/>
<path d="M193.183 291.466L193.227 291.377L193.139 291.421L193.183 291.466Z" fill="white"/>
<path d="M143.952 323.266L143.582 323.636C143.715 323.503 143.833 323.369 143.966 323.251L143.952 323.266Z" fill="white"/>
<path d="M167.605 323.236L168.123 322.94L167.605 323.251V323.236Z" fill="white"/>
<path d="M143.95 323.266H144.364V322.852L143.936 323.222L143.95 323.266Z" fill="white"/>
<path d="M144.32 322.896H144.468V322.763L144.335 322.867L144.32 322.896Z" fill="white"/>
<path d="M145.075 321.832L144.957 321.876H145.09L145.075 321.832Z" fill="white"/>
<path d="M168.686 321.802L169.07 321.462L168.656 321.802H168.686Z" fill="white"/>
<path d="M145.09 321.876L145.445 321.477L145.105 321.876H145.09Z" fill="white"/>
<path d="M169.527 321.078L169.039 321.433L169.468 321.063L169.527 321.078Z" fill="white"/>
<path d="M145.784 321.063L145.414 321.433L145.798 321.063H145.784Z" fill="white"/>
<path d="M145.828 321.107L146.198 320.723L145.828 321.092V321.107Z" fill="white"/>
<path d="M146.199 320.723L146.584 320.354L146.199 320.738V320.723Z" fill="white"/>
<path d="M170.636 319.555L170.252 319.969L170.636 319.511V319.555Z" fill="white"/>
<path d="M165.98 242.871C165.862 242.871 165.773 242.871 165.758 242.871C164.812 245.724 162.55 246.448 159.845 246.286C153.931 245.916 149.496 243.329 147.071 237.77C146.096 235.523 145.371 233.158 144.514 230.851C144.337 230.452 144.14 230.062 143.922 229.683C143.701 232.078 143.597 234.119 143.272 236.203C142.38 243.401 139.281 250.146 134.401 255.511C131.968 258.328 128.718 260.318 125.102 261.203C123.815 261.548 122.46 261.559 121.167 261.236C119.874 260.912 118.684 260.265 117.71 259.355C115.711 257.446 113.361 255.94 110.792 254.92C108.925 254.065 107.396 252.614 106.445 250.795C104.681 247.617 103.669 244.077 103.488 240.446C103.355 238.524 103.488 236.573 103.488 234.636H103.119C102.764 235.109 102.394 235.567 102.054 236.114C97.947 242.092 92.2249 246.778 85.5553 249.627C84.6063 250.05 83.6152 250.372 82.5985 250.588C80.8245 250.958 79.9079 250.292 79.6418 248.503C79.553 247.971 79.6417 247.409 79.5383 246.552C79.1391 247.084 78.8582 247.409 78.6217 247.779C77.3502 249.745 76.1675 251.756 74.8222 253.693C73.3984 255.797 71.4103 257.457 69.086 258.483C67.3423 259.301 65.3689 259.491 63.5012 259.019C61.6335 258.547 59.9868 257.444 58.8407 255.895C57.2712 253.812 56.2541 251.366 55.8839 248.784C55.3075 245.259 55.2477 241.668 55.7065 238.125C56.3422 232.625 57.0223 227.155 57.7023 221.582C55.7985 223.317 54.0794 225.244 52.5723 227.333C50.0985 231.088 47.6 234.823 45.0769 238.539C44.2902 239.716 43.4049 240.824 42.4306 241.851C39.9764 244.423 37.3744 244.586 34.5359 242.427C32.8501 241.153 31.6462 239.344 31.1208 237.297C30.2428 233.83 30.0321 230.228 30.4999 226.682C31.4609 216.984 35.8961 208.735 41.2183 200.87C53.2635 183.022 70.47 169.276 90.5375 161.47C96.611 159.267 102.83 157.488 109.151 156.148C110.747 155.749 112.344 155.305 113.911 154.773C115.69 154.299 117.248 153.218 118.314 151.717C119.38 150.216 119.889 148.389 119.751 146.553C119.647 143.478 119.218 140.433 118.893 137.372C118.479 133.396 117.932 129.433 117.592 125.457C117.089 119.44 116.705 113.422 116.291 107.405C115.79 99.8941 116.662 92.3545 118.864 85.1556C120.697 79.035 122.545 72.8997 123.875 66.6608C124.902 61.3796 125.622 56.0436 126.034 50.6794C126.625 44.7658 126.98 38.8522 127.35 32.8204C127.457 30.6174 127.418 28.4096 127.231 26.2119C126.95 27.1285 126.64 28.0452 126.359 28.9765C123.646 37.7014 119.262 45.8155 113.453 52.8674C110.289 56.7999 106.859 60.5107 103.444 64.2215C95.3329 72.9406 88.6159 82.859 83.5299 93.6268C82.0515 96.8053 80.3661 99.8804 78.6956 102.97C73.7426 112.246 66.7338 120.266 58.205 126.418C47.5049 134.445 35.6979 140.878 23.1522 145.518C16.0264 148.061 8.97443 150.811 1.89292 153.457C1.36069 153.664 0.813723 153.797 0.266717 153.96L0.0449219 153.546C0.570648 153.008 1.13927 152.514 1.74511 152.068C14.0897 143.996 24.2315 133.529 33.8706 122.5C41.6907 113.196 48.8348 103.344 55.2482 93.0206C57.0814 90.1821 59.0033 87.3879 60.8513 84.5642C66.192 76.5205 73.3736 69.8661 81.8002 65.1529C85.3632 63.0831 88.8965 60.9394 92.5629 59.0619C104.471 52.9218 114.33 43.4428 120.933 31.7855C122.855 28.4887 124.585 25.0884 126.344 21.7028C127.378 19.5989 127.886 17.2752 127.823 14.9318C127.823 10.8662 127.926 6.80062 128 2.73503C128 1.87756 128.118 1.03488 128.192 0.118274L129.286 0C129.286 1.59667 129.286 3.1342 129.286 4.65695C129.286 9.4026 129.035 14.1335 129.02 18.8791C129.02 28.6809 128.488 38.4383 127.542 48.1957C127.108 55.5689 126.085 62.8956 124.482 70.1055C123.24 74.9842 121.88 79.8481 120.312 84.6381C117.756 92.8962 116.872 101.581 117.71 110.185C118.154 115.581 118.464 120.992 118.997 126.373C119.573 132.287 120.298 138.2 121.022 144.114C121.214 145.569 121.496 147.01 121.865 148.431C122.036 149.084 122.316 149.704 122.693 150.264C122.878 150.661 123.14 151.017 123.464 151.311C123.788 151.606 124.168 151.834 124.58 151.981C124.993 152.128 125.43 152.192 125.867 152.169C126.305 152.145 126.733 152.036 127.128 151.846C130.203 150.988 133.278 150.042 136.397 149.421C140.469 148.719 144.618 148.585 148.727 149.022C159.209 149.88 168.848 153.457 178.295 157.893C187.032 162.003 195.711 166.26 204.507 170.282C213.393 174.252 222.778 176.993 232.404 178.428C235.069 178.874 237.705 179.477 240.299 180.231C241.539 180.593 242.709 181.162 243.758 181.917C244.898 182.725 245.715 183.91 246.065 185.264C246.414 186.617 246.272 188.05 245.666 189.309C244.492 191.706 242.566 193.654 240.181 194.852C237.108 196.433 233.77 197.435 230.335 197.809C225.207 198.561 219.991 198.491 214.885 197.602C213.171 197.04 211.322 197.04 209.607 197.602C209.386 198.386 209.105 199.243 208.898 200.116C208.657 201.247 208.119 202.294 207.339 203.148C206.56 204.003 205.567 204.635 204.463 204.979C200.93 206.303 197.092 206.586 193.404 205.793C189.648 205.019 186.19 203.188 183.44 200.515C182.896 199.967 182.254 199.526 181.548 199.214C181.681 199.716 181.784 200.234 181.962 200.692C184.147 206.872 185.344 213.358 185.51 219.911C185.657 223.592 185.643 227.303 185.51 230.97C185.386 234.679 184.371 238.305 182.553 241.54C181.384 243.651 179.726 245.451 177.719 246.788C176.396 247.847 174.714 248.349 173.028 248.189C171.342 248.029 169.785 247.219 168.685 245.931C167.723 244.966 166.82 243.944 165.98 242.871ZM119.558 157.671C118.483 157.03 117.207 156.814 115.981 157.065C114.695 157.272 113.438 157.508 112.152 157.686C104.816 158.6 97.7591 161.069 91.4541 164.93C80.6564 171.618 71.7539 180.964 65.597 192.073C63.6862 195.46 62.451 199.185 61.9601 203.043C61.561 206.28 61.2358 209.518 60.7183 212.741C59.6539 219.29 58.3233 225.795 57.4067 232.374C56.5147 237.225 56.3156 242.178 56.8153 247.084C57.0672 249.852 58.0241 252.509 59.5947 254.801C60.5795 256.241 62.0579 257.269 63.7499 257.691C65.4419 258.113 67.23 257.9 68.7756 257.093C70.6714 256.175 72.3078 254.798 73.536 253.086C74.4821 251.8 75.3544 250.455 76.1971 249.095C77.2467 247.424 78.2225 245.724 79.2574 244.039C79.5974 243.462 79.9522 242.797 81.0906 243.388C81.0906 244.29 80.8836 245.281 80.8689 246.345C80.8541 247.409 80.4697 248.444 81.401 249.302C82.8666 249.268 84.3002 248.866 85.5701 248.134C93.0708 244.818 99.2513 239.095 103.133 231.871C106.625 225.478 109.496 218.765 111.708 211.824C113.449 205.922 114.593 199.86 115.123 193.729C115.774 187.175 116.478 180.63 117.237 174.096C117.725 169.942 118.346 165.802 118.923 161.663C119.115 160.302 119.351 158.942 119.558 157.612V157.671ZM165.389 240.668H165.936C166.365 241.233 166.765 241.82 167.133 242.427C167.948 243.95 169.107 245.261 170.519 246.256C171.231 246.804 172.084 247.14 172.978 247.223C173.873 247.307 174.773 247.136 175.575 246.729C177.745 245.669 179.577 244.026 180.867 241.984C182.6 239.277 183.683 236.205 184.031 233.01C184.771 226.214 184.622 219.351 183.588 212.593C182.283 204.236 179.387 196.206 175.057 188.939C170.064 179.884 162.765 172.31 153.902 166.985C147.086 162.89 140.093 159.164 132.302 157.213C129.323 156.185 126.086 156.185 123.107 157.213C122.832 157.648 122.648 158.134 122.566 158.642C122.485 159.151 122.508 159.67 122.634 160.169C123.195 165.628 125.408 170.785 128.976 174.953C131.933 178.206 134.608 181.65 137.27 185.11C140.777 189.561 143.584 194.521 145.593 199.82C148.55 207.759 149.407 216.082 149.939 224.42C150.117 227.303 150.117 230.201 150.383 233.069C150.619 235.508 151.078 237.933 151.492 240.357C151.605 240.987 151.864 241.582 152.246 242.095C152.628 242.608 153.124 243.025 153.695 243.314C156.057 244.674 158.793 245.239 161.5 244.926C162.212 244.898 162.894 244.637 163.442 244.183C163.99 243.728 164.372 243.106 164.531 242.412C164.793 241.793 165.095 241.19 165.433 240.609L165.389 240.668ZM121.421 158.528H121.022C120.777 159.048 120.574 159.587 120.416 160.14C120.002 162.18 119.558 164.22 119.292 166.29C118.819 170.015 118.479 173.682 118.065 177.481C117.489 182.922 116.986 188.362 116.291 193.744C115.729 198.179 115.094 202.511 114.221 206.842C112.544 214.102 109.992 221.131 106.622 227.776C106.117 228.689 105.692 229.644 105.351 230.63C103.729 236.749 104.251 243.239 106.829 249.021C107.286 250.204 107.983 251.28 108.876 252.181C109.769 253.082 110.839 253.788 112.019 254.254C114.218 255.065 116.209 256.358 117.844 258.039C118.682 258.953 119.747 259.63 120.93 260.001C122.114 260.372 123.375 260.425 124.585 260.153C125.909 259.891 127.186 259.427 128.37 258.778C132.42 256.49 135.702 253.054 137.802 248.903C142.429 240.311 143.835 230.349 141.764 220.813C140.201 213.16 137.853 205.689 134.756 198.519C132.421 192.975 129.996 187.446 127.808 181.843C125.051 175.192 123.067 168.248 121.894 161.145C121.776 160.214 121.599 159.341 121.466 158.469L121.421 158.528ZM125.132 154.773C125.827 154.98 126.004 155.098 126.167 155.069C132.668 154.432 139.23 154.862 145.593 156.34C161.234 160.051 172.869 168.714 179.093 183.883C180.572 187.461 181.858 191.112 183.248 194.734C184.07 197.131 185.333 199.352 186.973 201.283C187.75 202.229 188.717 203 189.812 203.545C193.952 205.408 198.626 205.707 202.969 204.388C204.214 204.137 205.349 203.503 206.216 202.576C207.083 201.648 207.638 200.472 207.804 199.214C207.875 198.848 207.969 198.488 208.085 198.135C208.176 197.577 208.475 197.074 208.923 196.728C209.37 196.383 209.932 196.219 210.495 196.272C211.661 196.229 212.83 196.298 213.984 196.479C218.77 197.375 223.663 197.549 228.501 196.996C232.242 196.638 235.893 195.637 239.294 194.039C241.474 192.98 243.256 191.249 244.379 189.102C244.945 188.069 245.107 186.864 244.833 185.719C244.56 184.575 243.872 183.572 242.901 182.907C242.201 182.409 241.434 182.011 240.624 181.724C239.357 181.256 238.058 180.88 236.736 180.601C233.055 179.862 229.344 179.255 225.692 178.516C215.045 176.149 204.742 172.438 195.03 167.473C187.284 163.717 179.552 159.918 171.672 156.459C161.323 151.92 150.634 149.2 139.147 150.264C134.852 150.618 130.646 151.682 126.699 153.413C126.15 153.796 125.64 154.231 125.176 154.714L125.132 154.773ZM119.026 37.6399L118.819 37.3738C118.716 37.3738 118.583 37.4921 118.524 37.5808C118.257 37.9208 118.006 38.2756 117.755 38.6157C111.823 47.1465 103.975 54.1692 94.8397 59.121C90.8333 61.2795 86.9155 63.5562 83.0125 65.8477C74.0796 70.8251 66.517 77.9356 60.9992 86.5452C57.0568 92.6461 53.0504 98.7026 48.9799 104.715C37.9008 121.344 24.3336 136.172 8.75269 148.682C8.61835 148.822 8.49941 148.975 8.39789 149.141C9.14295 149.04 9.85556 148.772 10.4824 148.357C13.6018 146.509 16.7508 144.691 19.8407 142.783C42.534 128.635 61.9601 111.249 74.8961 87.3732C78.4231 80.8423 83.0037 74.9381 88.453 69.8985C91.4555 67.0671 94.6356 64.4302 97.9739 62.0039C106.055 56.209 112.788 48.7348 117.71 40.0941C118.184 39.2957 118.627 38.4383 119.071 37.5808L119.026 37.6399ZM14.5628 147.041L14.7994 147.411C16.1743 146.908 17.5343 146.361 18.9093 145.932C32.6038 141.207 45.4888 134.401 57.111 125.752C65.8375 119.466 73.0003 111.256 78.0451 101.758C79.5235 98.9194 81.0019 96.1105 82.4802 93.2128C87.644 82.2853 94.466 72.2218 102.705 63.3788C106.12 59.6532 109.535 55.9868 112.713 52.0099C117.745 45.863 121.713 38.9171 124.452 31.4602C124.733 30.6767 124.94 29.8784 125.191 29.08C124.583 29.6513 124.082 30.3274 123.713 31.0759C121.303 35.3632 119.041 39.754 116.439 43.9231C111.705 51.4668 105.525 57.9987 98.2548 63.1423C88.2585 70.3174 80.0524 79.7022 74.2752 90.5665C69.8953 98.5003 64.574 105.877 58.4268 112.535C46.4278 125.554 32.5259 136.679 17.1944 145.533C16.3517 145.932 15.4942 146.494 14.6072 147.041H14.5628ZM89.9609 163.141L89.8131 162.816C88.9409 163.17 88.0391 163.496 87.1668 163.895C67.0754 173.046 50.9609 186.692 39.4738 205.674C35.6068 211.625 33.0237 218.317 31.8896 225.322C31.1971 229.212 31.384 233.208 32.4366 237.016C32.7336 238.087 33.2532 239.083 33.9614 239.939C34.6696 240.795 35.5505 241.492 36.5465 241.984C36.8816 242.208 37.2591 242.362 37.6558 242.436C38.0526 242.509 38.4602 242.501 38.8535 242.411C39.2468 242.321 39.6176 242.151 39.9429 241.912C40.2682 241.674 40.5413 241.371 40.7452 241.023C41.483 240.039 42.0848 238.96 42.5341 237.815C43.4046 235.521 44.1497 233.182 44.7664 230.807C46.6735 223.415 48.3146 215.86 50.3843 208.468C53.4937 197.188 59.5625 186.944 67.9624 178.797C74.0591 172.945 80.9405 167.969 88.4086 164.013L89.9609 163.141ZM43.7907 238.007C44.3672 237.238 44.7516 236.78 45.0917 236.277C47.1762 233.158 49.2164 229.994 51.3452 226.904C52.3039 225.553 53.3354 224.255 54.4351 223.016C55.4848 221.804 56.6675 220.724 57.6728 219.483C58.2169 218.824 58.5924 218.042 58.7668 217.206C59.3434 213.687 59.8904 210.169 60.2452 206.62C60.7568 200.408 62.6944 194.398 65.9075 189.057C70.9442 180.977 77.3415 173.829 84.8161 167.931C85.2153 167.606 85.5849 167.251 85.9693 166.911C85.4431 166.921 84.9304 167.079 84.4909 167.369C79.9404 170.081 75.641 173.193 71.6437 176.668C62.2014 184.791 55.2896 195.454 51.7296 207.389C49.9999 213.022 48.7729 218.802 47.2945 224.509C46.1709 228.87 45.0326 233.246 43.8203 238.007H43.7907ZM150.767 240.653C150.767 240.357 150.649 240.077 150.605 239.796C150.176 236.839 149.659 233.971 149.378 231.044C148.816 225.248 148.52 219.409 147.899 213.613C146.809 203.156 142.699 193.242 136.072 185.08C132.953 181.192 129.789 177.348 126.64 173.49C126.551 173.386 126.389 173.357 126.078 173.209C126.315 173.978 126.463 174.569 126.684 175.116C129.73 182.7 132.746 190.299 135.85 197.854C139.205 205.519 141.685 213.538 143.242 221.759C144.174 227.274 146.362 232.359 148.298 237.519C148.485 238.182 148.802 238.8 149.231 239.339C149.66 239.877 150.192 240.324 150.797 240.653H150.767ZM131.548 155.35V155.749C140.117 158.019 148.257 161.674 155.646 166.571C162.302 170.717 168.058 176.156 172.574 182.567C175.075 186.078 177.252 189.809 179.079 193.714C180.426 196.215 182.327 198.374 184.637 200.027C184.637 199.746 184.756 199.613 184.726 199.524C182.952 195.207 181.015 190.964 179.389 186.588C177.331 180.568 174.001 175.061 169.626 170.442C165.251 165.822 159.934 162.198 154.035 159.815C149.019 157.79 143.752 156.452 138.378 155.838C136.028 155.557 133.766 155.498 131.504 155.35H131.548Z" fill="white"/>
<path d="M99.1272 220.163C99.2662 219.449 99.4439 218.743 99.6594 218.049C103.296 208.276 106.844 198.475 109.639 188.407C112.344 178.649 114.473 168.759 116.424 158.839C116.504 158.137 116.539 157.431 116.528 156.725C114.148 157.612 111.901 158.203 109.831 159.223C97.2603 164.97 86.6697 174.306 79.3907 186.056C72.7995 196.886 68.1655 208.791 65.7007 221.227C64.0871 229.502 63.4274 237.935 63.7344 246.36C63.5871 245.97 63.4685 245.57 63.3796 245.162C63.3055 244.673 63.2758 244.178 63.2909 243.684C63.4092 239.145 63.217 234.562 63.7196 230.053C65.745 211.839 71.6291 194.956 82.5397 180.128C89.5964 170.736 98.9552 163.322 109.713 158.602C110.108 158.432 110.513 158.284 110.925 158.159L117.341 156.074C116.309 163.831 114.828 171.522 112.906 179.108C109.413 192.709 104.967 206.047 99.6003 219.024C99.4377 219.423 99.2011 219.778 99.0089 220.163H99.1272Z" fill="white"/>
<path d="M85.688 163.555C85.0034 164.135 84.2878 164.678 83.5443 165.181C78.1592 168.167 73.053 171.631 68.2872 175.53C55.0852 187.209 44.6329 200.855 38.6158 217.605C36.9432 222.285 35.7349 227.118 35.0086 232.034C34.9133 232.582 34.7441 233.114 34.5059 233.616C34.5576 230.705 34.985 227.813 35.7773 225.012C39.1481 210.228 46.5844 197.662 56.2975 186.307C61.5481 179.835 67.7962 174.241 74.8069 169.735C78.3699 167.561 82.0659 165.639 85.7175 163.599L85.688 163.555Z" fill="white"/>
<path d="M192.945 190.861C192.576 190.462 192.177 190.107 191.851 189.678C186.439 182.346 180.421 175.482 173.859 169.158C165.818 161.464 155.954 155.94 145.193 153.103C139.848 151.599 134.206 151.502 128.813 152.822C127.452 153.177 126.181 153.812 124.762 154.197C124.993 153.94 125.262 153.721 125.56 153.546C128.122 152.362 130.876 151.651 133.691 151.447C144.262 150.737 153.635 154.256 162.535 159.475C170.545 164.352 177.599 170.65 183.351 178.058C186.174 181.562 188.924 185.11 191.659 188.673C192.14 189.383 192.565 190.129 192.93 190.905L192.945 190.861Z" fill="white"/>
<path d="M179.743 231.28C179.492 228.59 179.403 225.869 178.989 223.223C178.206 218.389 177.437 213.539 176.298 208.779C173.624 197.446 168.751 186.747 161.958 177.289C158.564 172.6 154.539 168.401 149.998 164.812C147.559 162.929 144.866 161.401 142 160.273C141.451 160.098 140.978 159.744 140.654 159.268C141.793 159.696 142.946 160.081 144.055 160.569C149.008 162.939 153.441 166.271 157.094 170.37C165.403 179.004 170.858 189.309 174.731 200.53C176.988 207.256 178.572 214.189 179.462 221.227C179.906 224.509 179.876 227.836 180.068 231.147L179.743 231.28Z" fill="white"/>
<path d="M126.359 157.493C128.667 157.657 130.931 158.207 133.057 159.12C140.111 162.13 146.261 166.924 150.901 173.031C155.816 179.585 159.856 186.752 162.92 194.35C166.481 202.293 169.048 210.645 170.563 219.216C170.579 219.323 170.572 219.432 170.544 219.536C170.516 219.64 170.467 219.738 170.401 219.823C170.209 219.069 170.002 218.344 169.824 217.575C169.647 216.807 169.484 216.097 169.277 215.254C165.816 200.809 159.738 187.12 151.344 174.865C146.853 168.444 140.728 163.34 133.604 160.081C131.234 159.098 128.816 158.234 126.359 157.493Z" fill="white"/>
<path d="M157.256 150.619C159.045 151.21 160.893 151.713 162.638 152.423C171.964 156.274 180.679 161.464 188.509 167.827C195.502 173.46 202.554 179.004 209.591 184.563C210.996 185.672 212.548 186.633 213.938 187.682C214.362 188.013 214.767 188.369 215.15 188.747C214.261 188.355 213.402 187.901 212.578 187.387C206.664 183.06 200.805 178.699 195 174.303C189.086 169.868 183.335 165.299 177.259 161.071C171.453 157.269 165.294 154.036 158.868 151.417L157.227 150.634L157.256 150.619Z" fill="white"/>
<path d="M126.314 181.488C126.716 181.992 127.063 182.537 127.349 183.114C130.167 190.379 132.088 197.96 133.071 205.689C133.876 212.092 134.202 218.546 134.046 224.997C133.978 233.477 132.876 241.917 130.764 250.13C130.606 250.696 130.419 251.254 130.203 251.8C134.919 228.013 134.786 204.492 126.329 181.473L126.314 181.488Z" fill="white"/>
<path d="M99.1107 182.922C94.8677 195.562 89.7968 207.877 84.4007 220.059C80.956 227.865 77.3636 235.612 73.8302 243.388C73.7826 243.506 73.7085 243.611 73.6136 243.696C73.5188 243.781 73.4057 243.842 73.2832 243.876C74.1702 241.747 74.9981 239.589 75.9443 237.489C83.765 220.192 91.2161 202.747 98.1202 185.051C98.4437 184.335 98.809 183.639 99.2142 182.966L99.1107 182.922Z" fill="white"/>
<path d="M109.756 161.795C107.805 163.392 105.868 164.989 103.843 166.571C89.6798 177.939 81.2086 192.886 76.4186 210.154C76.3035 210.723 76.0609 211.259 75.709 211.721C76.1229 210.006 76.4629 208.276 76.9656 206.576C82.3765 188.732 91.9861 173.8 107.494 163.037C108.214 162.59 108.96 162.185 109.727 161.825L109.756 161.795Z" fill="white"/>
<path d="M136.736 164.072C137.575 164.532 138.38 165.051 139.146 165.625C148.215 173.323 155.239 183.146 159.592 194.217C160.405 196.198 161.071 198.208 161.839 200.13C161.233 198.948 160.538 197.78 160.021 196.553C156.189 187.212 150.75 178.616 143.951 171.154C141.659 168.685 139.146 166.393 136.736 164.028V164.072Z" fill="white"/>
<path d="M130.854 168.818C131.593 169.705 132.406 170.548 133.071 171.494C139.559 180.434 144.093 190.639 146.377 201.446C146.721 202.804 146.943 204.189 147.042 205.586C146.554 203.989 146.007 202.392 145.564 200.781C142.771 189.984 138.134 179.751 131.859 170.533C131.489 169.986 131.223 169.365 130.898 168.774L130.854 168.818Z" fill="white"/>
<path d="M158.559 209.459C159.771 212.652 161.146 215.787 162.181 219.024C163.83 224.48 165.056 230.056 165.847 235.701C166.039 236.972 166.143 238.258 166.231 239.544C166.251 240.012 166.086 240.468 165.773 240.816C165.55 240.535 165.385 240.214 165.285 239.87C164.452 232.135 162.969 224.484 160.85 216.999C160.17 214.471 159.372 211.957 158.647 209.429L158.559 209.459Z" fill="white"/>
<path d="M123.711 216.038C124.139 230.092 122.189 244.117 117.945 257.522C118.921 252.865 120.059 248.237 120.902 243.536C121.745 238.835 122.292 233.971 122.78 229.151C123.268 224.332 123.46 219.556 123.711 216.038Z" fill="white"/>
<path d="M116.482 189.56C116.187 193.108 115.935 196.656 115.61 200.204C115.182 204.639 114.694 209.075 114.235 213.51C113.954 216.378 113.659 219.246 113.407 222.114C113.067 226.268 112.772 230.423 112.535 233.439C112.535 231.443 112.535 228.294 112.535 225.145C112.609 223.06 112.905 220.99 113.112 218.921L114.59 205.201C114.871 202.392 115.078 199.583 115.433 196.789C115.729 194.365 116.157 191.97 116.527 189.56H116.482Z" fill="white"/>
<path d="M121.288 199.628C119.754 186.815 119.585 173.875 120.786 161.027C120.244 173.893 120.411 186.78 121.288 199.628Z" fill="white"/>
<path d="M88.3338 225.322C87.8016 226.801 87.3728 228.368 86.7223 229.757C84.7709 234.193 82.7307 238.465 80.6758 242.797C80.2761 243.65 79.69 244.403 78.9608 245C78.9608 244.807 78.8425 244.571 78.9608 244.423C82.0063 238.105 85.0616 231.802 88.1268 225.514C88.1268 225.411 88.3042 225.367 88.4077 225.307L88.3338 225.322Z" fill="white"/>
<path d="M183.69 171.73C182.316 170.622 180.896 169.557 179.58 168.375C173.26 162.715 165.933 158.292 157.981 155.335C157.329 155.035 156.701 154.684 156.104 154.285C161.854 156.252 167.561 158.395 172.455 162.062C176.18 164.856 179.654 167.975 183.217 170.932C183.421 171.152 183.591 171.401 183.72 171.671L183.69 171.73Z" fill="white"/>
<path d="M195.133 184.326C195.65 184.725 196.197 185.11 196.7 185.539C200.233 188.495 203.737 191.452 207.3 194.409C208.32 195.237 209.532 195.813 210.597 196.833C210.242 196.833 209.828 197.026 209.518 196.833C208.718 196.537 207.95 196.161 207.226 195.71C202.828 192.673 198.873 189.041 195.473 184.918C195.337 184.718 195.233 184.498 195.162 184.267L195.133 184.326Z" fill="white"/>
<path d="M209.207 176.949C210.892 177.644 212.607 178.294 214.278 179.034C221.204 182.302 228.329 185.131 235.611 187.505C237.342 187.928 239.045 188.457 240.712 189.087C239.544 188.88 238.346 188.717 237.193 188.436C230.864 186.717 224.707 184.415 218.802 181.562C215.564 180.083 212.4 178.487 209.207 176.949Z" fill="white"/>
<path d="M38.8226 224.258C38.5417 226.638 38.2017 229.003 37.9947 231.384C37.7138 234.547 37.5364 237.741 37.3146 240.919C37.3065 241.529 37.1491 242.128 36.8564 242.664C36.6642 242.368 36.3389 242.087 36.3094 241.792C36.2354 240.625 36.2354 239.455 36.3094 238.288C36.5344 233.757 37.2835 229.267 38.5417 224.908C38.638 224.697 38.7517 224.494 38.8817 224.302L38.8226 224.258Z" fill="white"/>
<path d="M96.8496 197.588L98.7124 192.029C100.945 185.361 103.148 178.723 105.543 171.627C105.158 173.238 104.907 174.451 104.582 175.663C102.526 182.962 100.058 190.139 97.1896 197.159C97.104 197.305 96.9996 197.439 96.8791 197.558L96.8496 197.588Z" fill="white"/>
<path d="M115.684 255.422L119.187 238.583C118.636 244.306 117.612 249.972 116.127 255.526L115.684 255.422Z" fill="white"/>
<path d="M198.149 203.072C197.709 202.909 197.292 202.691 196.908 202.422C193.606 199.13 190.324 195.808 187.062 192.457C186.9 192.21 186.79 191.934 186.736 191.644L198.179 203.072H198.149Z" fill="white"/>
<path d="M96.8198 197.558L96.0215 199.317L96.8198 197.543V197.558Z" fill="white"/>
<path d="M116.497 189.648V188.022H116.719C116.63 188.54 116.556 189.042 116.482 189.501L116.497 189.648Z" fill="white"/>
<path d="M89.0584 223.533L88.334 225.322L89.0732 223.548L89.0584 223.533Z" fill="white"/>
<path d="M130.425 168.404C130.218 168.049 129.996 167.694 129.789 167.325L130.41 168.419L130.425 168.404Z" fill="white"/>
<path d="M96.0226 199.317L95.6973 200.456C95.8008 200.071 95.9043 199.702 96.0226 199.317Z" fill="white"/>
<path d="M99.1411 182.966L99.4663 181.798C99.3333 182.183 99.2151 182.567 99.082 182.951L99.1411 182.966Z" fill="white"/>
<path d="M126.019 180.32L126.315 181.488C126.196 181.103 126.093 180.704 125.975 180.32H126.019Z" fill="white"/>
<path d="M156.104 154.285H155.498L156.06 154.404L156.104 154.285Z" fill="white"/>
<path d="M38.866 224.302V223.696L39.0582 223.77L38.7773 224.258L38.866 224.302Z" fill="white"/>
<path d="M153.974 153.857L153.855 153.827L153.959 153.783L153.974 153.857Z" fill="white"/>
<path d="M86.3971 163.215L85.6875 163.555L86.4119 163.215H86.3971Z" fill="white"/>
<path d="M86.4408 163.259L87.2244 162.875L86.3965 163.215L86.4408 163.259Z" fill="white"/>
<path d="M95.6958 200.456C95.5627 200.707 95.4444 200.943 95.3262 201.195L95.755 200.47L95.6958 200.456Z" fill="white"/>
<path d="M95.3272 201.195L95.209 201.387L95.3124 201.461V201.224L95.3272 201.195Z" fill="white"/>
<path d="M193.316 182.153L193.582 182.848L193.301 182.168L193.316 182.153Z" fill="white"/>
<path d="M157.833 207.892L157.686 207.715L157.789 207.936L157.833 207.892Z" fill="white"/>
<path d="M158.204 208.646L157.834 207.892C157.952 208.128 158.071 208.38 158.204 208.631V208.646Z" fill="white"/>
<path d="M99.467 181.798L99.5853 181.606H99.334L99.4966 181.828L99.467 181.798Z" fill="white"/>
<path d="M97.9734 222.809L97.7812 222.986L98.003 222.853L97.9734 222.809Z" fill="white"/>
<path d="M89.1033 223.652L89.4729 222.913L89.0293 223.652H89.1033Z" fill="white"/>
<path d="M98.002 222.853L98.3568 221.966L98.0168 222.853H98.002Z" fill="white"/>
<path d="M89.473 222.838L89.5912 222.617H89.4434V222.838H89.473Z" fill="white"/>
<path d="M98.6973 220.961L99.126 220.163C98.9781 220.414 98.8451 220.68 98.6973 220.946V220.961Z" fill="white"/>
<path d="M158.588 209.43L158.203 208.646L158.602 209.43H158.588Z" fill="white"/>
<path d="M125.988 180.29V180.069H125.855L125.959 180.276L125.988 180.29Z" fill="white"/>
<path d="M198.12 203.117L198.342 203.575L198.105 203.072L198.12 203.117Z" fill="white"/>
<path d="M198.342 203.575L198.46 203.59L198.401 203.575H198.342Z" fill="white"/>
<path d="M156.71 205.734V205.615L156.562 205.748L156.71 205.734Z" fill="white"/>
<path d="M191.823 180.615V180.468L191.66 180.615H191.808H191.823Z" fill="white"/>
<path d="M209.223 176.949L209.119 176.89L209.208 176.964L209.223 176.949Z" fill="white"/>
<path d="M206.605 175.426V175.574L206.753 175.412H206.62L206.605 175.426Z" fill="white"/>
<path d="M206.605 175.441V175.293L206.457 175.456H206.605V175.441Z" fill="white"/>
<path d="M184.416 172.529L184.52 172.573L184.46 172.484L184.416 172.529Z" fill="white"/>
<path d="M184.076 172.1L183.691 171.73L184.046 172.115L184.076 172.1Z" fill="white"/>
<path d="M130.882 168.774L130.424 168.404L130.897 168.774H130.882Z" fill="white"/>
<path d="M129.789 167.325L129.375 166.985L129.759 167.325H129.789Z" fill="white"/>
<path d="M129.375 166.985L128.99 166.571L129.36 167.029L129.375 166.985Z" fill="white"/>
<path d="M128.989 166.571V166.438H128.871L128.975 166.556L128.989 166.571Z" fill="white"/>
<path d="M136.767 164.028L136.412 163.614L136.752 164.102L136.767 164.028Z" fill="white"/>
<path d="M186.323 191.334L186.678 191.689L186.309 191.334H186.323Z" fill="white"/>
<path d="M192.93 190.905L192.989 190.964L192.944 190.861L192.93 190.905Z" fill="white"/>
<path d="M185.214 190.255L184.814 189.87L185.184 190.314L185.214 190.255Z" fill="white"/>
<path d="M183.691 188.377V188.51L183.839 188.362L183.691 188.377Z" fill="white"/>
<path d="M183.69 188.377V187.978H183.291L183.661 188.362L183.69 188.377Z" fill="white"/>
<path d="M183.322 187.993V187.875L183.174 188.008L183.322 187.993Z" fill="white"/>
<path d="M194.734 184.016L195.134 184.326L194.749 184.001L194.734 184.016Z" fill="white"/>
<path d="M194.778 183.971L194.379 183.646L194.763 183.986L194.778 183.971Z" fill="white"/>
<path d="M193.994 183.306L194.349 183.676L193.994 183.292V183.306Z" fill="white"/>
<path d="M194.024 183.262L193.625 182.804C193.758 182.952 193.906 183.099 194.039 183.262H194.024Z" fill="white"/>
<path d="M110.88 161.027H111.013L110.865 160.894V161.027H110.88Z" fill="white"/>
<path d="M192.931 181.783L193.315 182.153L192.916 181.783H192.931Z" fill="white"/>
<path d="M192.562 181.399L192.931 181.783L192.547 181.399H192.562Z" fill="white"/>
<path d="M110.881 161.027H110.777L110.881 161.16V161.056V161.027Z" fill="white"/>
<path d="M192.191 181L192.561 181.399L192.65 181.088L192.191 181.015V181Z" fill="white"/>
<path d="M191.807 180.616L192.191 181V180.586H191.777L191.807 180.616Z" fill="white"/>
</g>
<defs>
<clipPath id="clip0_8_217">
<rect width="287.4" height="394.524" fill="white"/>
</clipPath>
</defs>
</svg>
