<?xml version="1.0" encoding="UTF-8"?>
<svg id="English" xmlns="http://www.w3.org/2000/svg" viewBox="0 0 205.38 80">
  <defs>
    <style>
      .cls-1 {
        fill: #1a3948;
      }

      .cls-1, .cls-2 {
        stroke-width: 0px;
      }

      .cls-2 {
        fill: #fa5420;
      }
    </style>
  </defs>
  <g id="English-2" data-name="English">
    <path class="cls-1" d="m63.51,53.46h-4.17l-3.41-4.89v4.89h-3.4v-13.49h4.87c1.85,0,2.94.64,3.53,1.19.46.43,1.22,1.4,1.22,3.06,0,1.18-.36,2.09-1.1,2.8-.48.45-1.1.8-1.73.99l4.19,5.46Zm-7.58-7.5h.56c.56,0,1.27-.06,1.76-.53.17-.17.46-.55.46-1.18,0-.53-.19-.95-.57-1.23-.34-.25-.9-.39-1.63-.39h-.58v3.33Zm12.15,7.79c-1.48,0-2.55-.43-3.48-1.39-.9-.94-1.35-2.08-1.35-3.41,0-1.44.52-2.77,1.44-3.67.82-.81,1.97-1.25,3.23-1.25.8,0,1.87.19,2.68,1.03v-.74h3.2v9.12h-3.2v-.78c-.62.72-1.46,1.08-2.52,1.08Zm.57-6.97c-.56,0-1.12.22-1.49.59-.28.28-.62.76-.62,1.5s.31,1.21.57,1.48c.39.4,1,.65,1.61.65.53,0,1.04-.21,1.41-.57.3-.28.66-.78.66-1.56,0-.6-.23-1.15-.62-1.52-.37-.35-.97-.57-1.52-.57Zm11.05,6.97c-1.33,0-2.34-.4-3.19-1.25-.94-.92-1.46-2.22-1.46-3.65s.52-2.71,1.46-3.59c.85-.79,2-1.23,3.23-1.23,1.08,0,2.01.37,2.66,1.04v-6.34h3.2v14.72h-3.2v-.8c-.65.73-1.56,1.09-2.7,1.09Zm.75-6.97c-.6,0-1.05.17-1.46.55-.3.28-.66.78-.66,1.58,0,.57.24,1.12.66,1.52.39.37.91.57,1.42.57.56,0,1.15-.24,1.56-.61.23-.21.62-.69.62-1.48,0-.6-.2-1.1-.61-1.52-.41-.41-.89-.61-1.53-.61Zm10.49,6.67h-3.2v-9.12h3.2v9.12Zm-1.6-10.93c-1.03,0-1.84-.79-1.84-1.81s.81-1.81,1.84-1.81,1.84.79,1.84,1.81-.81,1.81-1.84,1.81Zm8.48,11.22c-1.63,0-3.12-.53-4.08-1.47-.88-.86-1.41-2.12-1.41-3.39s.53-2.53,1.41-3.39c.96-.93,2.45-1.47,4.08-1.47s3.12.53,4.08,1.47c.88.86,1.41,2.12,1.41,3.39s-.53,2.53-1.41,3.39c-.96.93-2.45,1.47-4.08,1.47Zm0-7.01c-.62,0-1.15.2-1.55.59-.42.41-.63.92-.63,1.56s.21,1.15.63,1.56c.41.39.93.59,1.57.59s1.13-.2,1.53-.59c.42-.41.63-.92.63-1.56s-.21-1.15-.63-1.56c-.4-.39-.93-.59-1.55-.59Zm10.09,6.72h-3.4v-13.5h7.77v2.87h-4.36v2.26h4.04v2.87h-4.04v5.51Zm43.41-.01h-7.68v-13.49h7.68v2.86h-4.37v2.26h4.15v2.86h-4.15v2.64h4.37v2.86Zm7.59-9.12v5.01c0,.39-.05.95-.45,1.32-.27.24-.69.38-1.16.38s-.85-.12-1.14-.38c-.41-.36-.47-.89-.47-1.32v-5.01h-3.26v5.47c0,.92.13,1.89,1.06,2.76.85.8,2.09,1.19,3.81,1.19s2.95-.4,3.79-1.19c.99-.93,1.08-1.96,1.08-2.94v-5.29h-3.26Zm17.94,9.42c-1.63,0-3.12-.53-4.08-1.47-.88-.86-1.41-2.12-1.41-3.39s.53-2.53,1.41-3.39c.96-.93,2.45-1.47,4.08-1.47s3.12.53,4.08,1.47c.88.86,1.41,2.12,1.41,3.39s-.53,2.53-1.41,3.39c-.96.93-2.45,1.47-4.08,1.47Zm0-7.01c-.62,0-1.15.2-1.55.59-.42.41-.63.92-.63,1.56s.21,1.15.63,1.56c.41.39.93.59,1.57.59s1.13-.2,1.53-.59c.42-.41.63-.92.63-1.56s-.21-1.15-.63-1.56c-.41-.39-.93-.59-1.55-.59Zm9.9,11.24h-3.2v-13.65h3.2v.8c.7-.73,1.59-1.1,2.66-1.1,1.29,0,2.43.45,3.29,1.29.9.88,1.4,2.14,1.4,3.55s-.5,2.69-1.48,3.65c-.87.85-1.84,1.23-3.15,1.23-1.16,0-2.07-.35-2.72-1.05v5.28Zm1.95-11.2c-.74,0-1.23.33-1.51.61-.4.39-.64.97-.64,1.52s.22,1.07.61,1.46c.41.4.97.63,1.55.63.53,0,1.07-.21,1.46-.57.4-.38.66-.99.66-1.58s-.23-1.12-.64-1.5c-.4-.37-.92-.57-1.48-.57Zm-125.18,28.18h-4.17l-3.41-4.89v4.89h-3.4v-13.49h4.87c1.85,0,2.94.64,3.53,1.19.46.43,1.22,1.4,1.22,3.06,0,1.18-.36,2.09-1.1,2.8-.48.45-1.1.8-1.73.99l4.19,5.46Zm-7.58-7.5h.56c.56,0,1.27-.06,1.76-.53.17-.17.46-.55.46-1.18,0-.53-.19-.95-.57-1.23-.34-.25-.9-.39-1.63-.39h-.58v3.33Zm12.15,7.79c-1.48,0-2.55-.43-3.48-1.39-.9-.94-1.35-2.08-1.35-3.41,0-1.44.52-2.77,1.44-3.67.82-.81,1.97-1.25,3.23-1.25.8,0,1.87.19,2.68,1.03v-.74h3.2v9.12h-3.2v-.78c-.62.72-1.46,1.08-2.52,1.08Zm.57-6.97c-.56,0-1.12.22-1.49.59-.28.28-.62.76-.62,1.5s.31,1.21.57,1.48c.39.4,1,.65,1.61.65.53,0,1.04-.21,1.41-.57.3-.28.66-.78.66-1.56,0-.6-.23-1.15-.62-1.52-.37-.35-.97-.57-1.52-.57Zm11.05,6.97c-1.33,0-2.34-.4-3.19-1.25-.94-.92-1.46-2.22-1.46-3.65s.52-2.71,1.46-3.59c.85-.79,2-1.23,3.23-1.23,1.08,0,2.01.37,2.66,1.04v-6.34h3.2v14.72h-3.2v-.8c-.65.73-1.56,1.09-2.7,1.09Zm.75-6.97c-.6,0-1.05.17-1.46.55-.3.28-.66.78-.66,1.58,0,.57.24,1.12.66,1.52.39.37.91.57,1.42.57.56,0,1.15-.24,1.56-.61.23-.21.62-.69.62-1.48,0-.6-.2-1.1-.61-1.52-.41-.41-.89-.61-1.53-.61Zm10.45,6.67h-3.2v-9.12h3.2v9.12Zm-1.6-10.93c-1.03,0-1.84-.79-1.84-1.81s.81-1.81,1.84-1.81,1.84.79,1.84,1.81-.81,1.81-1.84,1.81Zm8.48,11.22c-1.63,0-3.12-.53-4.08-1.47-.88-.86-1.41-2.12-1.41-3.39s.53-2.53,1.41-3.39c.96-.93,2.45-1.47,4.08-1.47s3.12.53,4.08,1.47c.88.86,1.41,2.12,1.41,3.39s-.53,2.53-1.41,3.39c-.96.93-2.45,1.47-4.08,1.47Zm0-7.01c-.62,0-1.15.2-1.55.59-.42.41-.63.92-.63,1.56s.21,1.15.63,1.56c.41.39.93.59,1.57.59s1.13-.2,1.53-.59c.42-.41.63-.92.63-1.56s-.21-1.15-.63-1.56c-.4-.39-.93-.59-1.55-.59Zm14.49,6.71h-7.66v-13.49h3.43v10.63h4.22v2.86Zm4.55,0h-3.2v-9.12h3.2v9.12Zm-1.6-10.93c-1.03,0-1.84-.79-1.84-1.81s.81-1.81,1.84-1.81,1.84.79,1.84,1.81-.81,1.81-1.84,1.81Zm9.56,11.22c-1.15,0-2.07-.37-2.73-1.1v.8h-3.23v-14.72h3.23v6.34c.66-.67,1.6-1.04,2.69-1.04,1.24,0,2.4.44,3.26,1.23.95.88,1.48,2.15,1.48,3.59s-.52,2.73-1.47,3.65c-.86.85-1.88,1.25-3.22,1.25Zm-.75-6.97c-.65,0-1.14.19-1.55.61-.41.42-.61.92-.61,1.52,0,.79.39,1.26.63,1.48.41.38,1.01.62,1.57.62.52,0,1.04-.21,1.43-.57.42-.39.67-.94.67-1.52,0-.79-.36-1.29-.67-1.58-.41-.38-.87-.56-1.47-.56Zm29.69,6.67h-3.23v-6.53h-1.02v-2.59h1.02v-2.85h3.23v2.85h1.82v2.59h-1.82v6.53Zm7.19,4.53h-3.67l3.32-5.81-4.47-7.84h3.76l2.51,4.63,2.45-4.63h3.67l-7.56,13.65Zm-34.77-25.79c-1.17,0-2.52-.16-3.7-1.31-.9-.88-1.4-2.13-1.4-3.51s.52-2.68,1.42-3.59c.89-.87,2.08-1.31,3.56-1.31,1.58,0,2.79.45,3.68,1.37.88.91,1.31,2.12,1.31,3.68v.44h-6.72c.03.4.19.92.5,1.26.32.34.77.51,1.39.51.44,0,.84-.09,1.1-.24.01,0,.34-.19.57-.67l.04-.09h3.09s-.12.48-.12.48c-.4,1.24-1.2,1.94-1.8,2.3-.78.46-1.71.67-2.92.67Zm-1.71-6.21h3.55c-.08-.22-.22-.53-.49-.78-.32-.3-.76-.46-1.27-.46-.56,0-1.01.17-1.37.53-.2.21-.34.45-.42.7Zm12.96,6.21c-1.17,0-2.52-.16-3.7-1.31-.9-.88-1.4-2.13-1.4-3.51s.52-2.68,1.42-3.59c.89-.87,2.08-1.31,3.56-1.31,1.58,0,2.79.45,3.68,1.37.88.91,1.31,2.12,1.31,3.68v.44h-6.72c.03.4.19.92.5,1.26.32.34.77.51,1.39.51.44,0,.84-.09,1.1-.24.01,0,.34-.19.57-.67l.04-.09h3.09s-.12.48-.12.48c-.4,1.24-1.2,1.94-1.8,2.3-.78.46-1.71.67-2.92.67Zm-1.71-6.21h3.55c-.08-.22-.22-.53-.49-.78-.32-.3-.76-.46-1.27-.46-.56,0-1.01.17-1.37.53-.2.21-.34.45-.42.7Zm64.31,6.21c-1.17,0-2.52-.16-3.7-1.31-.9-.88-1.4-2.13-1.4-3.51s.52-2.68,1.42-3.59c.89-.87,2.08-1.31,3.56-1.31,1.58,0,2.79.45,3.68,1.37.88.91,1.31,2.12,1.31,3.68v.44h-6.72c.03.4.19.92.5,1.26.32.34.77.51,1.39.51.44,0,.84-.09,1.1-.24.01,0,.34-.19.57-.67l.04-.09h3.09s-.12.48-.12.48c-.4,1.24-1.2,1.94-1.8,2.3-.78.46-1.71.67-2.92.67Zm-1.71-6.21h3.55c-.08-.22-.22-.53-.49-.78-.32-.3-.76-.46-1.27-.46-.56,0-1.01.17-1.37.53-.2.21-.34.45-.42.7Zm-62.9,27.75c-1.17,0-2.52-.16-3.7-1.31-.9-.88-1.4-2.13-1.4-3.51s.52-2.68,1.42-3.59c.89-.87,2.08-1.31,3.56-1.31,1.58,0,2.79.45,3.68,1.37.88.91,1.31,2.12,1.31,3.68v.44h-6.72c.03.4.19.92.5,1.26.32.34.77.51,1.39.51.44,0,.84-.09,1.1-.24.01,0,.34-.19.57-.67l.04-.09h3.09s-.12.48-.12.48c-.4,1.24-1.2,1.94-1.8,2.3-.78.46-1.71.67-2.92.67Zm-1.71-6.21h3.55c-.08-.22-.22-.53-.49-.78-.32-.3-.76-.46-1.27-.46-.56,0-1.01.17-1.37.53-.2.21-.34.45-.42.7Zm33.5-15.58h-3.2v-9.12h3.2v1.03c.26-.35.57-.65.91-.85.45-.28.94-.4,1.63-.4.37,0,.95.18.95.18v3.01s-.3-.38-1.48-.4c-.55-.01-.99.18-1.35.55-.59.61-.67,1.45-.67,2.27v3.73Zm-50.33-.03h-3.2v-9.12h3.2v1.03c.26-.35.57-.65.91-.85.45-.28.94-.4,1.63-.4.37,0,.95.18.95.18v3.01s-.3-.38-1.48-.4c-.55-.01-.99.18-1.35.55-.59.61-.67,1.45-.67,2.27v3.73Zm27.92,21.45h-3.2v-9.12h3.2v1.03c.26-.35.57-.65.91-.85.45-.28.94-.4,1.63-.4.37,0,.95.18.95.18v3.01s-.3-.38-1.48-.4c-.55-.01-.99.18-1.35.55-.59.61-.67,1.45-.67,2.27v3.73Z"/>
  </g>
  <g id="New_Symbol" data-name="New Symbol">
    <path class="cls-2" d="m52.19,24.13c-6.89.8-8.83,7.93-14.01,14.09-6.93,8.22-17.21,4-17.21,4,6.93-.86,8.92-8.04,14.23-14.17,7.04-8.13,16.99-3.91,16.99-3.91Zm-24.98,12.06s8.62-6.83,4.9-16.89c-2.8-7.59-8.2-12.97-5.34-19.3,0,0-8.54,6.93-4.98,16.89,2.72,7.62,8.28,12.97,5.42,19.3Zm-.5-1.45s.83-11.07-8.72-15.28C10.54,16.19,2.71,16.49.03,10.08c0,0-1.06,11,9.07,15.26,7.5,3.15,14.93,2.99,17.61,9.4Zm-11.35,18.59h19.37l4.52-9.09H15.36v9.09Zm3.09,26.67h1.63l11.12-25.45h-12.75v25.45Z"/>
  </g>
</svg>