<svg width="140" height="140" viewBox="0 0 140 140" fill="none" xmlns="http://www.w3.org/2000/svg">
<path d="M123.367 59.7201C123.227 59.0148 123.221 58.356 123.351 57.7437C123.491 57.1294 123.755 56.616 124.145 56.2035C124.534 55.7909 125.031 55.5246 125.635 55.4044L126.002 57.2482C125.556 57.3787 125.219 57.6291 124.989 57.9995C124.76 58.38 124.703 58.8574 124.818 59.4317C124.936 60.0261 125.169 60.4616 125.517 60.738C125.875 61.0124 126.281 61.1045 126.735 61.0144C127.087 60.9443 127.353 60.7814 127.533 60.5258C127.715 60.2802 127.835 59.9893 127.894 59.6529C127.954 59.3266 128.001 58.8774 128.034 58.3053C128.079 57.5841 128.15 56.9889 128.245 56.5196C128.352 56.0584 128.572 55.6376 128.905 55.2572C129.238 54.8768 129.732 54.6216 130.387 54.4914C130.991 54.3712 131.55 54.4172 132.064 54.6294C132.577 54.8415 133.009 55.1956 133.359 55.6916C133.709 56.1876 133.955 56.7933 134.097 57.5086C134.299 58.5262 134.208 59.4085 133.822 60.1555C133.448 60.9105 132.825 61.4114 131.953 61.6582L131.574 59.754C131.951 59.6476 132.242 59.4012 132.448 59.0146C132.654 58.6281 132.703 58.1627 132.595 57.6187C132.497 57.125 132.291 56.747 131.977 56.4847C131.663 56.2224 131.269 56.1384 130.796 56.2325C130.473 56.2966 130.225 56.4454 130.052 56.6789C129.89 56.9204 129.779 57.2044 129.718 57.5306C129.658 57.8569 129.609 58.2961 129.572 58.848C129.519 59.5813 129.439 60.1836 129.334 60.6549C129.231 61.1362 129.007 61.5681 128.665 61.9505C128.334 62.3409 127.836 62.6022 127.171 62.7344C126.637 62.8405 126.104 62.7946 125.572 62.5965C125.043 62.4085 124.577 62.0665 124.174 61.5704C123.784 61.0824 123.515 60.4657 123.367 59.7201Z" fill="#1E3B3D"/>
<path d="M128.596 64.1051C129.469 64.0743 130.24 64.2218 130.909 64.5476C131.589 64.8833 132.12 65.358 132.501 65.9715C132.883 66.5851 133.088 67.2973 133.116 68.1084C133.153 69.135 132.936 69.9906 132.467 70.6754C132.008 71.37 131.332 71.8513 130.436 72.1193L130.37 70.2252C130.785 70.0564 131.105 69.7984 131.329 69.4512C131.553 69.1041 131.656 68.6739 131.638 68.1606C131.613 67.442 131.336 66.8761 130.807 66.4631C130.289 66.0599 129.573 65.8745 128.66 65.9068C127.746 65.9391 127.04 66.1747 126.542 66.6138C126.043 67.0631 125.807 67.6471 125.833 68.3657C125.868 69.382 126.339 70.0387 127.243 70.3357L127.31 72.2298C126.439 72.0138 125.735 71.5762 125.198 70.9167C124.671 70.2569 124.39 69.424 124.354 68.4179C124.326 67.6069 124.48 66.8819 124.817 66.243C125.164 65.6037 125.66 65.0928 126.305 64.7103C126.96 64.3376 127.723 64.1359 128.596 64.1051Z" fill="#1E3B3D"/>
<path d="M131.514 76.0218C131.92 76.3177 132.221 76.6862 132.417 77.1275C132.622 77.58 132.698 78.0978 132.644 78.6808L130.833 78.5117L130.875 78.0668C130.939 77.3815 130.814 76.8437 130.499 76.4532C130.184 76.073 129.597 75.8428 128.738 75.7625L124.288 75.3471L124.452 73.5981L132.905 74.3875L132.742 76.1365L131.514 76.0218Z" fill="#1E3B3D"/>
<path d="M123.007 82.4229C123.193 81.6436 123.536 80.9809 124.036 80.435C124.546 79.8914 125.164 79.5162 125.889 79.3092C126.625 79.1046 127.417 79.1037 128.266 79.3065C129.106 79.5069 129.806 79.8696 130.367 80.3943C130.928 80.9191 131.307 81.543 131.504 82.266C131.701 82.989 131.705 83.7451 131.517 84.5345C131.328 85.3238 130.983 85.9964 130.48 86.5524C129.978 87.1083 129.358 87.4936 128.62 87.7082C127.883 87.9228 127.094 87.9298 126.255 87.7294C125.415 87.529 124.716 87.1613 124.158 86.6266C123.599 86.0918 123.218 85.4517 123.016 84.7064C122.822 83.9734 122.818 83.2123 123.007 82.4229ZM124.491 82.7773C124.386 83.2169 124.393 83.6516 124.512 84.0814C124.629 84.5212 124.868 84.9111 125.231 85.2511C125.593 85.5911 126.074 85.8327 126.673 85.9759C127.273 86.119 127.805 86.1246 128.27 85.9927C128.744 85.8631 129.132 85.6335 129.432 85.3039C129.733 84.9744 129.935 84.5898 130.04 84.1501C130.145 83.7105 130.138 83.2758 130.019 82.846C129.898 82.4262 129.653 82.0563 129.286 81.7363C128.929 81.4186 128.451 81.1882 127.851 81.045C126.962 80.8327 126.219 80.8928 125.622 81.2255C125.032 81.5706 124.655 82.0879 124.491 82.7773Z" fill="#1E3B3D"/>
<path d="M131.405 94.2416L120.715 90.2725L121.327 88.6257L132.016 92.5948L131.405 94.2416Z" fill="#1E3B3D"/>
<path d="M129.873 97.8371L119.433 93.2514L120.14 91.6432L130.579 96.2288L129.873 97.8371Z" fill="#1E3B3D"/>
<path d="M120.761 100.261C121.458 100.753 121.975 101.33 122.311 101.994C122.641 102.667 122.779 103.355 122.724 104.057C122.671 104.774 122.429 105.439 121.997 106.052C121.677 106.505 121.263 106.879 120.754 107.174C120.247 107.483 119.738 107.652 119.227 107.682L122.578 110.043L121.557 111.491L112.236 104.923L113.257 103.475L114.302 104.211C114.132 103.74 114.086 103.217 114.163 102.643C114.235 102.078 114.46 101.526 114.839 100.989C115.265 100.384 115.806 99.9367 116.464 99.6459C117.123 99.3694 117.83 99.2765 118.583 99.3672C119.338 99.4722 120.064 99.7703 120.761 100.261ZM116.733 105.924C117.212 106.262 117.698 106.454 118.193 106.501C118.682 106.556 119.131 106.489 119.541 106.3C119.95 106.112 120.285 105.832 120.546 105.463C120.806 105.093 120.956 104.684 120.996 104.235C121.045 103.791 120.964 103.345 120.753 102.895C120.545 102.459 120.201 102.072 119.723 101.735C119.244 101.398 118.756 101.199 118.259 101.137C117.756 101.084 117.295 101.149 116.877 101.332C116.462 101.53 116.127 101.809 115.873 102.17C115.612 102.539 115.462 102.949 115.422 103.398C115.382 103.847 115.47 104.293 115.687 104.734C115.906 105.19 116.254 105.587 116.733 105.924Z" fill="#1E3B3D"/>
<path d="M108.428 108.688C109 108.126 109.642 107.746 110.355 107.548C111.076 107.358 111.799 107.367 112.523 107.576C113.255 107.793 113.927 108.212 114.54 108.835C115.145 109.45 115.547 110.128 115.744 110.871C115.942 111.613 115.932 112.343 115.716 113.061C115.5 113.778 115.102 114.421 114.524 114.991C113.945 115.56 113.296 115.947 112.575 116.152C111.854 116.357 111.124 116.355 110.385 116.145C109.646 115.936 108.973 115.524 108.368 114.909C107.763 114.294 107.365 113.612 107.175 112.862C106.985 112.112 107.002 111.368 107.225 110.629C107.449 109.904 107.85 109.257 108.428 108.688ZM109.499 109.775C109.176 110.092 108.952 110.465 108.825 110.892C108.691 111.327 108.687 111.784 108.814 112.265C108.941 112.745 109.221 113.205 109.653 113.644C110.085 114.084 110.533 114.371 110.997 114.505C111.468 114.647 111.919 114.658 112.348 114.538C112.778 114.418 113.154 114.199 113.476 113.882C113.798 113.565 114.022 113.193 114.149 112.765C114.269 112.345 114.258 111.901 114.116 111.435C113.982 110.977 113.698 110.528 113.266 110.088C112.625 109.437 111.963 109.094 111.28 109.059C110.598 109.039 110.004 109.278 109.499 109.775Z" fill="#1E3B3D"/>
<path d="M99.2562 126.325L96.8428 117.769L98.3937 116.762L103.243 121.09L101.263 114.899L102.814 113.892L109.66 119.57L108.161 120.543L102.957 115.783L105.162 122.49L103.624 123.488L98.4766 118.729L100.704 125.385L99.2562 126.325Z" fill="#1E3B3D"/>
<path d="M93.0989 128.93C92.4773 129.174 91.8719 129.262 91.2829 129.195C90.6844 129.132 90.1471 128.901 89.671 128.503C89.195 128.105 88.8163 127.547 88.5351 126.83L86.7074 122.168L88.3285 121.532L90.0606 125.951C90.3381 126.658 90.7268 127.129 91.2269 127.364C91.7307 127.608 92.2887 127.609 92.9008 127.37C93.5129 127.13 93.9257 126.747 94.1391 126.222C94.3468 125.71 94.3119 125.101 94.0344 124.393L92.3023 119.974L93.9377 119.333L97.0364 127.238L95.401 127.879L95.0467 126.975C94.9064 127.405 94.6662 127.792 94.3262 128.135C93.9766 128.481 93.5675 128.747 93.0989 128.93Z" fill="#1E3B3D"/>
<path d="M68.0761 124.486C68.7947 124.512 69.4369 124.659 70.0027 124.927C70.5682 125.204 71.0067 125.58 71.3182 126.054C71.6298 126.528 71.7742 127.073 71.7516 127.689L69.873 127.62C69.8489 127.157 69.6832 126.77 69.3759 126.461C69.0583 126.151 68.607 125.986 68.0218 125.964C67.4162 125.942 66.9387 126.068 66.5894 126.343C66.2397 126.629 66.0563 127.002 66.0394 127.464C66.0262 127.823 66.1232 128.12 66.3305 128.354C66.5276 128.587 66.7829 128.771 67.0966 128.906C67.4001 129.041 67.8264 129.19 68.3754 129.354C69.0667 129.564 69.6297 129.77 70.0643 129.971C70.4883 130.182 70.8469 130.493 71.1402 130.905C71.4335 131.316 71.5679 131.856 71.5434 132.523C71.5208 133.139 71.347 133.672 71.0221 134.123C70.6972 134.574 70.253 134.912 69.6896 135.138C69.1263 135.364 68.4801 135.464 67.7513 135.437C66.7144 135.399 65.8771 135.106 65.2394 134.558C64.5909 134.021 64.2474 133.299 64.2087 132.393L66.1489 132.464C66.1653 132.855 66.3379 133.196 66.6665 133.485C66.9951 133.775 67.4365 133.93 67.9909 133.95C68.4939 133.969 68.9092 133.855 69.2369 133.61C69.5645 133.365 69.7372 133.002 69.7549 132.519C69.767 132.191 69.6794 131.915 69.4923 131.692C69.2945 131.48 69.0439 131.306 68.7405 131.171C68.437 131.037 68.021 130.888 67.4925 130.725C66.7913 130.504 66.2236 130.287 65.7893 130.076C65.3448 129.865 64.9761 129.548 64.6832 129.126C64.3796 128.714 64.2403 128.169 64.2652 127.492C64.2851 126.947 64.4528 126.44 64.7682 125.968C65.0734 125.496 65.5137 125.122 66.0893 124.845C66.6542 124.578 67.3164 124.458 68.0761 124.486Z" fill="#1E3B3D"/>
<path d="M62.6645 128.544C62.4932 129.4 62.1718 130.116 61.7004 130.692C61.2168 131.276 60.6326 131.683 59.9476 131.913C59.2626 132.143 58.5222 132.178 57.7265 132.019C56.7192 131.817 55.9365 131.409 55.3785 130.795C54.8084 130.188 54.4962 129.419 54.4419 128.486L56.3003 128.858C56.3688 129.301 56.5461 129.671 56.8321 129.97C57.1182 130.268 57.513 130.467 58.0167 130.568C58.7218 130.709 59.3362 130.57 59.8601 130.151C60.3718 129.74 60.7173 129.086 60.8967 128.19C61.076 127.294 61.0096 126.552 60.6974 125.966C60.3751 125.378 59.8614 125.013 59.1563 124.872C58.159 124.672 57.4116 124.979 56.9139 125.79L55.0555 125.419C55.4665 124.621 56.0548 124.037 56.8204 123.666C57.5839 123.305 58.4593 123.224 59.4464 123.421C60.2422 123.581 60.912 123.898 61.456 124.373C61.9979 124.859 62.3806 125.459 62.6042 126.174C62.8157 126.898 62.8358 127.687 62.6645 128.544Z" fill="#1E3B3D"/>
<path d="M50.2924 128.586C49.9096 128.911 49.4807 129.117 49.0057 129.204C48.5177 129.298 47.9967 129.25 47.4427 129.06L48.0318 127.34L48.4546 127.485C49.1057 127.708 49.6579 127.712 50.1112 127.498C50.5548 127.281 50.9164 126.764 51.196 125.948L52.6437 121.72L54.3056 122.289L51.5548 130.322L49.893 129.753L50.2924 128.586Z" fill="#1E3B3D"/>
<path d="M46.1057 118.847C46.8206 119.208 47.3857 119.696 47.8008 120.309C48.2113 120.931 48.4331 121.619 48.4662 122.372C48.4947 123.135 48.3119 123.906 47.9177 124.685C47.5281 125.455 47.013 126.052 46.3724 126.476C45.7318 126.9 45.037 127.125 44.288 127.149C43.5391 127.173 42.8026 127.001 42.0785 126.635C41.3543 126.269 40.7801 125.777 40.3559 125.159C39.9316 124.541 39.7006 123.849 39.6629 123.081C39.6252 122.314 39.8012 121.545 40.1908 120.775C40.5804 120.005 41.1 119.411 41.7498 118.991C42.3996 118.572 43.1104 118.35 43.8823 118.326C44.6405 118.307 45.3816 118.48 46.1057 118.847ZM45.4169 120.208C45.0136 120.004 44.5891 119.91 44.1434 119.926C43.6886 119.938 43.2538 120.08 42.839 120.354C42.4242 120.628 42.0777 121.039 41.7994 121.589C41.5211 122.139 41.3923 122.655 41.413 123.138C41.429 123.63 41.5625 124.06 41.8134 124.429C42.0643 124.797 42.3914 125.084 42.7947 125.288C43.198 125.492 43.6225 125.586 44.0682 125.569C44.5047 125.549 44.9212 125.397 45.3177 125.114C45.7095 124.84 46.0445 124.428 46.3228 123.878C46.7356 123.062 46.8494 122.326 46.6641 121.668C46.4651 121.014 46.0494 120.528 45.4169 120.208Z" fill="#1E3B3D"/>
<path d="M32.6971 124.31L39.0256 114.825L40.4868 115.8L34.1583 125.285L32.6971 124.31Z" fill="#1E3B3D"/>
<path d="M29.5581 121.997L36.4282 112.896L37.8302 113.954L30.96 123.055L29.5581 121.997Z" fill="#1E3B3D"/>
<path d="M29.3786 112.654C28.7408 113.22 28.0601 113.59 27.3365 113.765C26.606 113.932 25.9053 113.909 25.2341 113.694C24.5484 113.478 23.9568 113.09 23.4591 112.529C23.091 112.114 22.8219 111.625 22.6519 111.062C22.4674 110.497 22.4193 109.963 22.5076 109.459L19.4415 112.179L18.2655 110.854L26.7955 103.287L27.9715 104.612L27.0147 105.461C27.513 105.404 28.0324 105.478 28.5731 105.685C29.1069 105.885 29.592 106.23 30.0283 106.722C30.5191 107.275 30.8307 107.905 30.963 108.612C31.0809 109.317 31.0094 110.026 30.7485 110.738C30.473 111.45 30.0164 112.088 29.3786 112.654ZM24.79 107.435C24.352 107.823 24.0534 108.253 23.8942 108.724C23.7283 109.187 23.6903 109.639 23.7802 110.081C23.8702 110.523 24.0652 110.913 24.3651 111.251C24.6651 111.59 25.0291 111.83 25.4572 111.972C25.8776 112.121 26.331 112.144 26.8174 112.042C27.2893 111.939 27.7442 111.694 28.1822 111.305C28.6203 110.917 28.9261 110.487 29.0997 110.018C29.2666 109.54 29.3089 109.077 29.2266 108.628C29.1298 108.178 28.9348 107.788 28.6417 107.458C28.3417 107.12 27.9777 106.88 27.5496 106.738C27.1215 106.595 26.6677 106.579 26.1881 106.689C25.6941 106.797 25.228 107.046 24.79 107.435Z" fill="#1E3B3D"/>
<path d="M23.9854 98.678C24.3986 99.3645 24.618 100.078 24.6437 100.818C24.6606 101.563 24.4827 102.263 24.1101 102.919C23.7287 103.58 23.164 104.136 22.4159 104.586C21.6765 105.031 20.9228 105.263 20.1548 105.282C19.3867 105.3 18.6791 105.121 18.032 104.743C17.3849 104.365 16.8522 103.828 16.4337 103.133C16.0152 102.438 15.7905 101.716 15.7595 100.967C15.7285 100.218 15.9011 99.5092 16.2772 98.8392C16.6533 98.1692 17.211 97.6117 17.9503 97.1668C18.6896 96.7218 19.4459 96.4944 20.2193 96.4845C20.9927 96.4746 21.7126 96.6648 22.3791 97.055C23.0315 97.4417 23.5669 97.9827 23.9854 98.678ZM22.6784 99.4646C22.4453 99.0774 22.1357 98.7721 21.7496 98.5489C21.3582 98.3169 20.914 98.2065 20.4173 98.2178C19.9205 98.229 19.408 98.3936 18.8799 98.7114C18.3519 99.0292 17.9683 99.398 17.7293 99.8176C17.4815 100.243 17.3658 100.678 17.3823 101.124C17.3987 101.569 17.5235 101.986 17.7566 102.373C17.9897 102.76 18.2993 103.065 18.6854 103.289C19.0662 103.503 19.4997 103.596 19.9859 103.567C20.4633 103.543 20.9661 103.373 21.4941 103.055C22.2775 102.583 22.7656 102.02 22.9585 101.364C23.1372 100.705 23.0439 100.072 22.6784 99.4646Z" fill="#1E3B3D"/>
<path d="M8.98018 85.758L17.8621 85.3858L18.4836 87.1272L13.152 90.8461L19.6334 90.349L20.2549 92.0904L13.1495 97.4403L12.5487 95.7569L18.382 91.7936L11.3471 92.3901L10.7308 90.6631L16.5506 86.7537L9.56026 87.3833L8.98018 85.758Z" fill="#1E3B3D"/>
<path d="M7.81028 79.0629C7.71554 78.4019 7.76828 77.7924 7.96851 77.2345C8.16727 76.6664 8.51499 76.1962 9.01166 75.8241C9.50833 75.452 10.138 75.2113 10.9006 75.1019L15.8578 74.3914L16.1049 76.115L11.407 76.7884C10.6545 76.8962 10.1069 77.1667 9.76428 77.5998C9.41146 78.0343 9.28169 78.577 9.37497 79.2278C9.46825 79.8785 9.74595 80.368 10.2081 80.6961C10.6586 81.0155 11.2601 81.1213 12.0126 81.0134L16.7105 80.3401L16.9597 82.0789L8.55532 83.2835L8.30609 81.5447L9.26703 81.4069C8.88048 81.1718 8.55928 80.8494 8.3034 80.4398C8.04607 80.0201 7.88169 79.5611 7.81028 79.0629Z" fill="#1E3B3D"/>
<path d="M17.8652 55.9166C17.6726 56.6094 17.3804 57.1998 16.9887 57.688C16.5872 58.1734 16.1197 58.5125 15.5862 58.7054C15.0528 58.8982 14.4892 58.9121 13.8954 58.7469L14.3991 56.9358C14.8554 57.0201 15.2698 56.9487 15.6421 56.7217C16.0172 56.4848 16.2832 56.0843 16.4401 55.5202C16.6025 54.9363 16.5905 54.4425 16.4043 54.0388C16.2081 53.6324 15.8873 53.3673 15.442 53.2434C15.0956 53.1471 14.7846 53.1726 14.5091 53.3198C14.2363 53.4572 13.9979 53.6628 13.7938 53.9366C13.5924 54.2005 13.3482 54.5803 13.061 55.0762C12.6957 55.6997 12.3647 56.1994 12.0682 56.5754C11.7646 56.9388 11.3785 57.2153 10.9099 57.4048C10.4414 57.5944 9.88546 57.5997 9.24216 57.4208C8.64835 57.2557 8.17005 56.9627 7.80726 56.5419C7.44448 56.1212 7.21864 55.6105 7.12975 55.01C7.04086 54.4095 7.09412 53.758 7.28955 53.0553C7.56755 52.0557 8.047 51.3094 8.72791 50.8164C9.40166 50.3107 10.1836 50.1443 11.0738 50.3173L10.5536 52.1878C10.1693 52.1129 9.79808 52.2016 9.44003 52.4538C9.08198 52.7061 8.82864 53.0995 8.68001 53.6339C8.54513 54.1189 8.55875 54.5491 8.72084 54.9248C8.88294 55.3004 9.19656 55.5529 9.66172 55.6822C9.97842 55.7703 10.2668 55.7492 10.527 55.619C10.78 55.4761 11.0071 55.2727 11.2085 55.0088C11.4098 54.745 11.6513 54.375 11.933 53.8989C12.311 53.2683 12.6531 52.7664 12.9595 52.3931C13.2687 52.0099 13.6625 51.7249 14.1409 51.5381C14.6122 51.3387 15.1745 51.3298 15.8277 51.5114C16.3522 51.6573 16.8072 51.9384 17.1925 52.3548C17.5806 52.7613 17.8424 53.2766 17.9781 53.9008C18.1065 54.5123 18.0689 55.1842 17.8652 55.9166Z" fill="#1E3B3D"/>
<path d="M15.1897 49.5839C14.3967 49.2182 13.7749 48.7392 13.3241 48.1467C12.8683 47.5406 12.6084 46.8777 12.5443 46.1581C12.4802 45.4385 12.6181 44.7103 12.9579 43.9733C13.388 43.0405 13.9668 42.3741 14.6942 41.9742C15.4165 41.5607 16.2376 41.436 17.1575 41.6L16.3638 43.3211C15.9168 43.2846 15.5151 43.3709 15.1586 43.5798C14.8021 43.7887 14.5163 44.1263 14.3012 44.5928C14.0001 45.2457 13.9924 45.8757 14.2781 46.4826C14.5589 47.0758 15.1144 47.5639 15.9446 47.9467C16.7748 48.3296 17.5113 48.4373 18.1541 48.2699C18.8012 48.0932 19.2753 47.6783 19.5765 47.0253C20.0023 46.1018 19.8783 45.3037 19.2044 44.6309L19.998 42.9098C20.6784 43.495 21.1098 44.203 21.2923 45.0338C21.4655 45.8602 21.3413 46.7306 20.9198 47.6448C20.5799 48.3817 20.1156 48.9594 19.5267 49.3779C18.9284 49.7921 18.2555 50.0248 17.508 50.076C16.7553 50.1135 15.9826 49.9495 15.1897 49.5839Z" fill="#1E3B3D"/>
<path d="M17.8736 37.7297C17.6441 37.2831 17.541 36.8187 17.5642 36.3363C17.5841 35.8398 17.7495 35.3434 18.0601 34.847L19.6013 35.8117L19.3642 36.1905C18.9991 36.7739 18.8691 37.3106 18.9744 37.8007C19.0852 38.2821 19.5062 38.7517 20.2377 39.2095L24.0254 41.5804L23.0934 43.0694L15.8967 38.5647L16.8287 37.0757L17.8736 37.7297Z" fill="#1E3B3D"/>
<path d="M28.4759 35.6364C27.9588 36.2484 27.3542 36.6857 26.6619 36.948C25.9617 37.2037 25.2412 37.2607 24.5003 37.119C23.7516 36.9706 23.0438 36.6146 22.3767 36.0512C21.7176 35.4943 21.2556 34.8553 20.9908 34.134C20.726 33.4128 20.6684 32.685 20.818 31.9508C20.9676 31.2165 21.3043 30.5394 21.828 29.9195C22.3517 29.2996 22.963 28.8545 23.6619 28.5843C24.3609 28.3141 25.088 28.2493 25.8433 28.3898C26.5987 28.5304 27.306 28.8791 27.9651 29.4359C28.6243 29.9928 29.083 30.6357 29.3411 31.3648C29.5993 32.0939 29.6509 32.8368 29.4958 33.5933C29.3396 34.3354 28.9996 35.0164 28.4759 35.6364ZM27.3106 34.6519C27.6023 34.3066 27.7917 33.9153 27.8788 33.4779C27.9725 33.0326 27.9342 32.5766 27.7637 32.1099C27.5932 31.6431 27.2725 31.2109 26.8017 30.8131C26.3309 30.4154 25.8584 30.1708 25.3841 30.0795C24.9021 29.9816 24.4527 30.0121 24.036 30.1711C23.6193 30.3301 23.2651 30.5822 22.9734 30.9275C22.6818 31.2728 22.4924 31.6641 22.4052 32.1015C22.3247 32.5311 22.3764 32.9714 22.5601 33.4225C22.736 33.8669 23.0594 34.288 23.5302 34.6857C24.2286 35.2757 24.9192 35.5566 25.6021 35.5283C26.2837 35.4855 26.8532 35.1934 27.3106 34.6519Z" fill="#1E3B3D"/>
<path d="M26.0509 21.5133L33.8364 29.8441L32.553 31.0435L24.7675 22.7127L26.0509 21.5133Z" fill="#1E3B3D"/>
<path d="M28.9735 19.019L36.2506 27.7975L34.8982 28.9186L27.6212 20.1401L28.9735 19.019Z" fill="#1E3B3D"/>
<path d="M38.3418 20.7932C37.9416 20.0403 37.7414 19.2917 37.7412 18.5472C37.7501 17.7979 37.9378 17.1223 38.3042 16.5204C38.6749 15.9046 39.1913 15.4207 39.8535 15.0687C40.3433 14.8083 40.8819 14.6616 41.4693 14.6286C42.061 14.5817 42.5914 14.6604 43.0606 14.8647L41.1369 11.2455L42.7016 10.4138L48.0534 20.4823L46.4887 21.314L45.8884 20.1847C45.8273 20.6825 45.6326 21.1699 45.3044 21.6468C44.9853 22.1189 44.5355 22.5093 43.955 22.8178C43.3019 23.165 42.6164 23.3199 41.8986 23.2826C41.185 23.2315 40.5128 22.9955 39.882 22.5746C39.2553 22.1399 38.7419 21.5461 38.3418 20.7932ZM44.4926 17.5587C44.2178 17.0417 43.8703 16.6506 43.4501 16.3853C43.0389 16.1152 42.608 15.972 42.1572 15.9557C41.7065 15.9393 41.2815 16.0372 40.8824 16.2494C40.4833 16.4615 40.1644 16.759 39.9258 17.1417C39.6824 17.5154 39.5531 17.9506 39.5379 18.4473C39.5269 18.9301 39.6589 19.43 39.9337 19.9471C40.2085 20.4641 40.5539 20.8622 40.9698 21.1413C41.3949 21.4157 41.8352 21.5655 42.2907 21.5909C42.7506 21.6025 43.1755 21.5046 43.5655 21.2972C43.9647 21.0851 44.2835 20.7876 44.5221 20.4049C44.7608 20.0221 44.8831 19.5848 44.8893 19.0929C44.8996 18.5872 44.7674 18.0758 44.4926 17.5587Z" fill="#1E3B3D"/>
<path d="M53.2149 18.7941C52.4514 19.0371 51.7068 19.0854 50.981 18.939C50.2522 18.7829 49.6119 18.4476 49.0601 17.9333C48.5053 17.4091 48.0954 16.7311 47.8306 15.899C47.569 15.0767 47.518 14.2898 47.6777 13.5383C47.8374 12.7868 48.176 12.14 48.6935 11.5981C49.2109 11.0561 49.8563 10.662 50.6296 10.416C51.4029 10.1699 52.1573 10.1184 52.8929 10.2617C53.6284 10.4049 54.2785 10.7371 54.8431 11.2581C55.4078 11.7791 55.821 12.4507 56.0826 13.273C56.3443 14.0953 56.3904 14.8837 56.2209 15.6384C56.0514 16.393 55.6997 17.0493 55.1658 17.6073C54.6385 18.1524 53.9882 18.548 53.2149 18.7941ZM52.7523 17.3404C53.183 17.2034 53.5517 16.9729 53.8582 16.6489C54.1746 16.3219 54.3848 15.9154 54.4889 15.4295C54.593 14.9436 54.5516 14.407 54.3647 13.8197C54.1778 13.2324 53.9079 12.7738 53.555 12.4442C53.1991 12.1047 52.8024 11.8913 52.365 11.8041C51.9276 11.7169 51.4935 11.7419 51.0628 11.8789C50.6321 12.016 50.2635 12.2465 49.9569 12.5704C49.6602 12.8913 49.4695 13.2915 49.385 13.7712C49.2974 14.2411 49.347 14.7697 49.5339 15.357C49.8111 16.2282 50.2463 16.8335 50.8395 17.173C51.4393 17.4996 52.0769 17.5554 52.7523 17.3404Z" fill="#1E3B3D"/>
<path d="M69.3636 7.1599L67.6579 15.8844L65.8196 16.0835L63.4441 10.0326L62.4187 16.4517L60.5804 16.6507L57.0316 8.49502L58.8086 8.30263L61.3051 14.8983L62.3627 7.91785L64.1857 7.72048L66.6329 14.2905L67.6479 7.34566L69.3636 7.1599Z" fill="#1E3B3D"/>
<path d="M75.9836 7.56293C76.6484 7.62501 77.2287 7.81849 77.7246 8.14335C78.2306 8.46917 78.6067 8.91698 78.8527 9.48676C79.0986 10.0565 79.1858 10.725 79.1142 11.4921L78.6486 16.4783L76.9149 16.3164L77.3562 11.591C77.4269 10.8341 77.2916 10.2386 76.9504 9.80436C76.6102 9.3599 76.1128 9.10711 75.4582 9.04598C74.8036 8.98486 74.2629 9.14071 73.836 9.51354C73.4203 9.87709 73.1771 10.4373 73.1064 11.1942L72.6652 15.9195L70.9162 15.7562L71.7056 7.30274L73.4546 7.46606L73.3643 8.43261C73.6832 8.1116 74.0716 7.87446 74.5295 7.7212C74.9977 7.56889 75.4824 7.51613 75.9836 7.56293Z" fill="#1E3B3D"/>
</svg>
